<svg xmlns="http://www.w3.org/2000/svg" xmlns:xlink="http://www.w3.org/1999/xlink" viewBox="0 0 76.76 77.06"><defs><style>.cls-1{fill:none;}.cls-2{fill:#bd1e52;}.cls-3{fill:#f3aa1d;}.cls-4{fill:#f4f4f4;}.cls-5{clip-path:url(#clip-path);}.cls-6{fill:#ddd;}</style><clipPath id="clip-path"><path class="cls-1" d="M30.85,16.56h4.82a1.6,1.6,0,0,1,1.58,1.36l3.68,23.82a.78.78,0,0,1-.78.91H34.22a.8.8,0,0,1-.79-.68l-.51-3.74a.23.23,0,0,0-.23-.2H23a.26.26,0,0,0-.2.1L20,42.31a.74.74,0,0,1-.63.34H13.45a.76.76,0,0,1-.63-1.2L29.53,17.26A1.59,1.59,0,0,1,30.85,16.56Zm1.42,15.61-.79-6.38a.17.17,0,0,1,0-.1l.19-.62a.15.15,0,0,0-.26-.13l-5.54,8.5a.15.15,0,0,0,.22.19l1.44-1.14a.27.27,0,0,1,.15-.05H32A.24.24,0,0,0,32.27,32.17Z"/></clipPath></defs><title>Asset 2</title><g id="Layer_2" data-name="Layer 2"><g id="Layer_1-2" data-name="Layer 1"><path class="cls-2" d="M13.82,31a31,31,0,1,1,16.6,27.46C28,57.17,9.84,60.37,9.84,60.37l7.64-12.69,2.33,1.76S13.66,40.49,13.82,31Z"/><path class="cls-3" d="M69.44,42.79a4.46,4.46,0,1,0-2.39,4A13.37,13.37,0,0,1,70,47l-1.1-1.83-.64.48A5.57,5.57,0,0,0,69.44,42.79Z"/><path class="cls-4" d="M30.85,16.56h4.82a1.6,1.6,0,0,1,1.58,1.36l3.68,23.82a.78.78,0,0,1-.78.91H34.22a.8.8,0,0,1-.79-.68l-.51-3.74a.23.23,0,0,0-.23-.2H23a.26.26,0,0,0-.2.1L20,42.31a.74.74,0,0,1-.63.34H13.45a.76.76,0,0,1-.63-1.2L29.53,17.26A1.59,1.59,0,0,1,30.85,16.56Zm1.42,15.61-.79-6.38a.17.17,0,0,1,0-.1l.19-.62a.15.15,0,0,0-.26-.13l-5.54,8.5a.15.15,0,0,0,.22.19l1.44-1.14a.27.27,0,0,1,.15-.05H32A.24.24,0,0,0,32.27,32.17Z"/><g class="cls-5"><path class="cls-6" d="M38.64,26.64,36.13,46a5.68,5.68,0,0,1-3-1.69C32.27,43.07,38.64,26.64,38.64,26.64Z"/></g><path class="cls-4" d="M42.32,16.56h4.62a1.28,1.28,0,0,1,1.23,1.62L46.4,24.71a1.28,1.28,0,0,0,1.24,1.62h6.55a1.27,1.27,0,0,0,1.23-.95l2.1-7.87a1.28,1.28,0,0,1,1.24-1h4.62a1.28,1.28,0,0,1,1.23,1.62L58.29,41.7a1.27,1.27,0,0,1-1.23.95H52.44A1.28,1.28,0,0,1,51.21,41L53,34.35c.08-.31,1-1,1.5-1.36a.1.1,0,0,0-.05-.18l-2.69-.07H45.23a1.26,1.26,0,0,0-1.23.95l-2.14,8a1.28,1.28,0,0,1-1.24.95H36A1.28,1.28,0,0,1,34.77,41l6.32-23.53A1.27,1.27,0,0,1,42.32,16.56Z"/><path class="cls-4" d="M65.2,37.14a5.06,5.06,0,0,1,2.16.48,1,1,0,0,0,1.34-.52l8.06-20.44H67.27a1.15,1.15,0,0,0-1.13,1L63.28,37.52A5.1,5.1,0,0,1,65.2,37.14Z"/><path class="cls-2" d="M3.44,74.28a1.65,1.65,0,0,1-.53,1.1,1.73,1.73,0,0,1-1.17.38,1.55,1.55,0,0,1-1.26-.57A2.24,2.24,0,0,1,0,73.68v-.43a2.54,2.54,0,0,1,.22-1.1,1.71,1.71,0,0,1,.63-.72,1.75,1.75,0,0,1,1-.25,1.64,1.64,0,0,1,1.14.39,1.72,1.72,0,0,1,.5,1.1H2.85a1.32,1.32,0,0,0-.34-.77,1,1,0,0,0-.71-.24,1.08,1.08,0,0,0-.89.41,2,2,0,0,0-.32,1.19v.43A1.92,1.92,0,0,0,.9,74.85a1,1,0,0,0,.84.43,1.15,1.15,0,0,0,.76-.22,1.29,1.29,0,0,0,.35-.78Z"/><path class="cls-2" d="M10.81,73.61a2.74,2.74,0,0,1-.22,1.15,1.63,1.63,0,0,1-1.57,1,1.63,1.63,0,0,1-.93-.26,1.72,1.72,0,0,1-.64-.74,2.75,2.75,0,0,1-.23-1.11v-.32a2.73,2.73,0,0,1,.23-1.14,1.68,1.68,0,0,1,.63-.75A1.64,1.64,0,0,1,9,71.18a1.74,1.74,0,0,1,.94.25,1.76,1.76,0,0,1,.63.76,2.7,2.7,0,0,1,.22,1.14Zm-.58-.29a2,2,0,0,0-.32-1.21A1,1,0,0,0,9,71.68a1,1,0,0,0-.88.43,1.85,1.85,0,0,0-.33,1.17v.33a2,2,0,0,0,.32,1.21,1,1,0,0,0,.89.44,1.07,1.07,0,0,0,.89-.41,2.1,2.1,0,0,0,.32-1.19Z"/><path class="cls-2" d="M15.6,71.24l1.45,3.64,1.46-3.64h.77V75.7h-.59V74l0-1.87L17.28,75.7h-.45l-1.46-3.6L15.42,74V75.7h-.58V71.24Z"/><path class="cls-2" d="M26.6,71.24v3a1.45,1.45,0,0,1-.4,1,1.67,1.67,0,0,1-1.07.45H25a1.69,1.69,0,0,1-1.17-.39,1.42,1.42,0,0,1-.44-1.09v-3H24v3a1.08,1.08,0,0,0,1.79.75,1,1,0,0,0,.27-.75v-3Z"/><path class="cls-2" d="M34.1,75.7h-.59l-2.25-3.44V75.7h-.59V71.24h.59l2.25,3.45V71.24h.59Z"/><path class="cls-2" d="M38.91,75.7h-.58V71.24h.58Z"/><path class="cls-2" d="M46.41,74.28a1.64,1.64,0,0,1-.52,1.1,1.73,1.73,0,0,1-1.17.38,1.57,1.57,0,0,1-1.27-.57A2.29,2.29,0,0,1,43,73.68v-.43a2.54,2.54,0,0,1,.22-1.1,1.71,1.71,0,0,1,.63-.72,1.74,1.74,0,0,1,.94-.25,1.52,1.52,0,0,1,1.64,1.49h-.59a1.26,1.26,0,0,0-.33-.77,1,1,0,0,0-.72-.24,1.06,1.06,0,0,0-.88.41,2,2,0,0,0-.32,1.19v.43a2,2,0,0,0,.3,1.16,1,1,0,0,0,.85.43,1.1,1.1,0,0,0,.75-.22,1.24,1.24,0,0,0,.35-.78Z"/><path class="cls-2" d="M52.82,74.53H51l-.42,1.17h-.61l1.71-4.46h.51l1.71,4.46h-.6Zm-1.69-.48h1.52L51.89,72Z"/><path class="cls-2" d="M60.84,74.28a1.64,1.64,0,0,1-.52,1.1,1.73,1.73,0,0,1-1.17.38,1.57,1.57,0,0,1-1.27-.57,2.24,2.24,0,0,1-.48-1.51v-.43a2.54,2.54,0,0,1,.23-1.1,1.64,1.64,0,0,1,.63-.72,1.72,1.72,0,0,1,.94-.25,1.61,1.61,0,0,1,1.14.39,1.67,1.67,0,0,1,.5,1.1h-.59a1.26,1.26,0,0,0-.33-.77,1,1,0,0,0-.72-.24,1.05,1.05,0,0,0-.88.41A1.89,1.89,0,0,0,58,73.26v.43a2,2,0,0,0,.3,1.16,1,1,0,0,0,.85.43,1.1,1.1,0,0,0,.75-.22,1.24,1.24,0,0,0,.35-.78Zm-1.5,1.45,0,.16a.49.49,0,0,1,.46.53.55.55,0,0,1-.24.47,1.2,1.2,0,0,1-.68.17l0-.33a.67.67,0,0,0,.38-.08.23.23,0,0,0,.13-.22.21.21,0,0,0-.1-.2,1,1,0,0,0-.39-.09l.09-.41Z"/><path class="cls-2" d="M67.25,74.53H65.38L65,75.7h-.61l1.71-4.46h.51l1.71,4.46h-.61Zm.16-4.39a.8.8,0,0,1-.18.54.65.65,0,0,1-.47.2.69.69,0,0,1-.22,0,1,1,0,0,1-.24-.13.87.87,0,0,0-.22-.11l-.15,0a.26.26,0,0,0-.21.1.32.32,0,0,0-.09.24l-.38,0a.8.8,0,0,1,.18-.54.62.62,0,0,1,.47-.22.45.45,0,0,1,.2,0l.23.11.22.12a.52.52,0,0,0,.18,0,.28.28,0,0,0,.22-.11A.33.33,0,0,0,67,70.1Zm-1.85,3.91h1.51L66.31,72Z"/><path class="cls-2" d="M75.42,73.61a2.74,2.74,0,0,1-.22,1.15,1.7,1.7,0,0,1-.63.74,1.64,1.64,0,0,1-.94.26,1.69,1.69,0,0,1-.94-.26,1.7,1.7,0,0,1-.63-.74,2.59,2.59,0,0,1-.23-1.11v-.32a2.73,2.73,0,0,1,.22-1.14,1.67,1.67,0,0,1,1.57-1,1.61,1.61,0,0,1,1.58,1,2.7,2.7,0,0,1,.22,1.14Zm-.59-.29a1.94,1.94,0,0,0-.32-1.21,1,1,0,0,0-.89-.43,1,1,0,0,0-.88.43,2,2,0,0,0-.33,1.17v.33a2,2,0,0,0,.33,1.21,1,1,0,0,0,.89.44,1.05,1.05,0,0,0,.88-.41,2,2,0,0,0,.32-1.19Z"/></g></g></svg>