<svg xmlns="http://www.w3.org/2000/svg" viewBox="0 0 707.26 169.79"><defs><style>.cls-1{fill:#aa0b0b;}.cls-2{fill:#2d282e;}</style></defs><title>Asset 1</title><g id="Layer_2" data-name="Layer 2"><g id="Layer_1-2" data-name="Layer 1"><path class="cls-1" d="M0,.08H48.94V166.2S0,142,0,102Z"/><path class="cls-1" d="M88,.08V54h48.49c4.49,0,12.57-5.39,13.92-9s0-31.87,0-36.36S141,.08,135.59.08Z"/><path class="cls-1" d="M88,91.22s59.56,0,63-2.25c.3,8.53,2.54,65.1-63,80.82Z"/><path class="cls-2" d="M221.09,27.73q0,7.29-3.44,11.15t-10.21,3.86q-6.83,0-10.72-3.72t-3.88-10.77V11.34a2.48,2.48,0,0,0-.74-2,4,4,0,0,0-2.52-.6,4.72,4.72,0,0,1,1.21-3.31h13.13a4.72,4.72,0,0,1,1.21,3.31,4,4,0,0,0-2.52.6,2.48,2.48,0,0,0-.74,2v18a10.36,10.36,0,0,0,1.6,6.07,5.6,5.6,0,0,0,4.91,2.28,5.53,5.53,0,0,0,4.81-2.07,9.07,9.07,0,0,0,1.49-5.44V11.34a2.28,2.28,0,0,0-.86-2,5.18,5.18,0,0,0-2.86-.6,4.58,4.58,0,0,1,1.15-3.31h11.55a4.82,4.82,0,0,1,1.16,3.31,5.16,5.16,0,0,0-2.86.6,2.28,2.28,0,0,0-.87,2Z"/><path class="cls-2" d="M254.33,40.64a5.8,5.8,0,0,1-2.81,1.26,16.7,16.7,0,0,1-3.86.48,5.38,5.38,0,0,1-3.33-.84,3.19,3.19,0,0,1-1.08-2.68V22.47a4.09,4.09,0,0,0-.89-2.94,3.23,3.23,0,0,0-2.36-.89,4.59,4.59,0,0,0-3.63,1.73v16A3.11,3.11,0,0,0,237,38.6a3,3,0,0,0,2.23.68,3.79,3.79,0,0,1-1.21,2.78H226.13a3.87,3.87,0,0,1-1.26-2.78,3.15,3.15,0,0,0,2.26-.68,3.06,3.06,0,0,0,.68-2.21V21.06a2.37,2.37,0,0,0-.79-2,4.54,4.54,0,0,0-2.73-.61V16.07a26.61,26.61,0,0,1,9.4-2.52,2.33,2.33,0,0,1,1.87.76,4.91,4.91,0,0,1,.76,2.86,9.73,9.73,0,0,1,3.41-2.65,10.64,10.64,0,0,1,4.62-1q3.78,0,5.6,1.91c1.2,1.28,1.81,3.37,1.81,6.28V36.08a2.79,2.79,0,0,0,2.52,3Z"/><path class="cls-2" d="M267.77,36.39a2.77,2.77,0,0,0,.76,2.18,3.51,3.51,0,0,0,2.34.66,3.85,3.85,0,0,1-1.21,2.83H257.8a3.85,3.85,0,0,1-1.21-2.83,3.27,3.27,0,0,0,2.28-.66,3,3,0,0,0,.71-2.23V21.11a2.7,2.7,0,0,0-.71-2.1,4.3,4.3,0,0,0-2.75-.63V16.07a17.94,17.94,0,0,1,4.28-1.66,19.31,19.31,0,0,1,5.12-.86,2.3,2.3,0,0,1,1.73.55,2.67,2.67,0,0,1,.52,1.86Zm-.39-27.86a5.08,5.08,0,0,1-3.7,1.34,4.83,4.83,0,0,1-3.6-1.34,4.87,4.87,0,0,1-1.34-3.6,4.78,4.78,0,0,1,1.39-3.57A5,5,0,0,1,263.78,0a5,5,0,0,1,3.63,1.36,4.84,4.84,0,0,1,1.36,3.57,4.75,4.75,0,0,1-1.39,3.6"/><path class="cls-2" d="M284.37,27.94l2.41,9.19,2.42-9.19,2.05-7.15a5.66,5.66,0,0,0,.21-1.26,2,2,0,0,0-.71-1.65,3.22,3.22,0,0,0-2-.55,4.31,4.31,0,0,1,1-3.15h10.19a4.28,4.28,0,0,1,1,3.15,2.83,2.83,0,0,0-2,.63,4.87,4.87,0,0,0-1.16,2.1l-5.46,16.75a11.78,11.78,0,0,1-2,4.36A4.22,4.22,0,0,1,287,42.43h-5.46l-8.29-22.37a6.79,6.79,0,0,0-1.16-2.13,2.55,2.55,0,0,0-1.89-.6,4.27,4.27,0,0,1,1.1-3.15h12a3.76,3.76,0,0,1,.9,1.44,5,5,0,0,1,.31,1.71,2.59,2.59,0,0,0-1.78.6,2.22,2.22,0,0,0-.69,1.76,4.4,4.4,0,0,0,.21,1.1Z"/><path class="cls-2" d="M322.39,34.6a3.7,3.7,0,0,1,.73,1.26,4.4,4.4,0,0,1,.32,1.48,3.33,3.33,0,0,1-1.27,2.17,10.29,10.29,0,0,1-3.49,2.13,14.58,14.58,0,0,1-11.81-.79A11.09,11.09,0,0,1,302.38,36a17,17,0,0,1-1.58-7.56,17,17,0,0,1,1.71-7.83,12.49,12.49,0,0,1,4.7-5.17A12.78,12.78,0,0,1,314,13.6a10.43,10.43,0,0,1,7.62,2.78,10.33,10.33,0,0,1,2.83,7.72,7.62,7.62,0,0,1-.73,3.65,2.75,2.75,0,0,1-2.63,1.34H309.73q.31,7.62,6.51,7.61a10.08,10.08,0,0,0,6.15-2.1M310.94,19q-1.11,1.81-1.21,6.07H315a1.09,1.09,0,0,0,1.11-.58,4.63,4.63,0,0,0,.26-1.78,8.94,8.94,0,0,0-.74-4.31,2.25,2.25,0,0,0-2-1.21A3.19,3.19,0,0,0,310.94,19"/><path class="cls-2" d="M348.59,14.76a4.71,4.71,0,0,1,1.1,3.3,5.55,5.55,0,0,1-1.18,3.68,4,4,0,0,1-3.18,1.42,4,4,0,0,1-2.81-1,3.14,3.14,0,0,1-1.07-2.36,4.6,4.6,0,0,1,.15-1.32,7.6,7.6,0,0,0-3.2,1.63V35.86a4.24,4.24,0,0,0,.37,2,2.29,2.29,0,0,0,1.44,1,11.31,11.31,0,0,0,3.23.35,5.31,5.31,0,0,1-.21,1.6,3.05,3.05,0,0,1-.78,1.23h-14a3.88,3.88,0,0,1-1.2-2.83,3,3,0,0,0,2.18-.66,3.13,3.13,0,0,0,.65-2.23V21.16a2.33,2.33,0,0,0-.76-2,4.61,4.61,0,0,0-2.7-.58V16.23a24.27,24.27,0,0,1,9-2.53,1.89,1.89,0,0,1,1.78.9,8,8,0,0,1,.53,3.57,9.19,9.19,0,0,1,3-3.2,7.29,7.29,0,0,1,4.2-1.42,4.47,4.47,0,0,1,3.47,1.21"/><path class="cls-2" d="M356.44,41.83a11.26,11.26,0,0,1-4.18-2.18,4.35,4.35,0,0,1-1.62-3.36,4.18,4.18,0,0,1,1.05-3,3.74,3.74,0,0,1,5.17-.18,3.18,3.18,0,0,1,1,2.46,3.45,3.45,0,0,1-.18,1.18,3.57,3.57,0,0,1-.66,1.08,3.22,3.22,0,0,0,1.58.66,12.12,12.12,0,0,0,2.47.23,5.17,5.17,0,0,0,2.81-.65,2,2,0,0,0,1-1.71A3,3,0,0,0,363.61,34a31.5,31.5,0,0,0-4.2-2.55c-2-1-3.45-1.91-4.47-2.6a10.11,10.11,0,0,1-2.7-2.78,7.58,7.58,0,0,1-1.18-4.33A6.9,6.9,0,0,1,354,15.91q2.94-2.21,8.14-2.2t7.58,1.81a5.24,5.24,0,0,1,2.5,4.33,3.45,3.45,0,0,1-3.52,3.57,3.54,3.54,0,0,1-2.34-.81,2.69,2.69,0,0,1-1-2.13,4.83,4.83,0,0,1,.21-1.39,3.52,3.52,0,0,1,.58-1.18,5,5,0,0,0-3.15-.84,4,4,0,0,0-2.63.78,2.5,2.5,0,0,0-.94,2,3.3,3.3,0,0,0,1.31,2.68,26.49,26.49,0,0,0,4.2,2.52,46.47,46.47,0,0,1,4.31,2.47A9.78,9.78,0,0,1,372,30.3a7.5,7.5,0,0,1,1.16,4.25,6.59,6.59,0,0,1-3.34,6.07,16,16,0,0,1-8.27,2,18,18,0,0,1-5.12-.76"/><path class="cls-2" d="M386.82,36.39a2.73,2.73,0,0,0,.76,2.18,3.5,3.5,0,0,0,2.34.66,3.89,3.89,0,0,1-1.21,2.83H376.84a3.85,3.85,0,0,1-1.21-2.83,3.31,3.31,0,0,0,2.29-.66,3,3,0,0,0,.71-2.23V21.11a2.7,2.7,0,0,0-.71-2.1,4.34,4.34,0,0,0-2.76-.63V16.07a18.12,18.12,0,0,1,4.28-1.66,19.38,19.38,0,0,1,5.12-.86,2.3,2.3,0,0,1,1.73.55,2.67,2.67,0,0,1,.53,1.86Zm-.4-27.86a5.07,5.07,0,0,1-3.7,1.34,4.86,4.86,0,0,1-3.6-1.34,4.87,4.87,0,0,1-1.34-3.6,4.79,4.79,0,0,1,1.4-3.57A5,5,0,0,1,382.83,0a4.94,4.94,0,0,1,3.62,1.36,4.85,4.85,0,0,1,1.37,3.57,4.75,4.75,0,0,1-1.4,3.6"/><path class="cls-2" d="M420,40.75a4.69,4.69,0,0,1-2.2,1.47,9.3,9.3,0,0,1-3.15.52,7.41,7.41,0,0,1-3-.65,4,4,0,0,1-2-1.81,5.6,5.6,0,0,1-2.6,1.91,11.6,11.6,0,0,1-3.86.55,10.29,10.29,0,0,1-5.41-1.49,10.68,10.68,0,0,1-4-4.47,16.1,16.1,0,0,1-1.49-7.27,18.19,18.19,0,0,1,1.91-8.66,13.09,13.09,0,0,1,5.07-5.36,13.82,13.82,0,0,1,6.93-1.79c.6,0,1.66.07,3.21.21l-.16-3.15V8.14a2.41,2.41,0,0,0-.74-1.94,4.42,4.42,0,0,0-2.78-.63V3.41a22.14,22.14,0,0,1,4.78-1.78,18.89,18.89,0,0,1,4.62-.79,2.41,2.41,0,0,1,1.76.55,2.57,2.57,0,0,1,.55,1.86v33a2.8,2.8,0,0,0,2.52,3.05Zm-10.76-3.41V19a3.46,3.46,0,0,0-2.94-1.53,4.19,4.19,0,0,0-3.71,2.42c-.92,1.61-1.39,4.22-1.39,7.82s.52,6.1,1.55,7.91,2.37,2.7,4,2.7a3.14,3.14,0,0,0,2.47-.94"/><path class="cls-2" d="M423.94,29.09c1.54-1.36,3.82-2.05,6.83-2.05a17.24,17.24,0,0,1,3.23.32,10.52,10.52,0,0,1,2.7.84v-7a3.82,3.82,0,0,0-1.05-3,4.1,4.1,0,0,0-2.83-.92,4.56,4.56,0,0,0-2.84.84,2.69,2.69,0,0,1,1.5,1.07,3.08,3.08,0,0,1,.5,1.71,3.43,3.43,0,0,1-1.21,2.73,4.49,4.49,0,0,1-3,1.05,4.44,4.44,0,0,1-3.2-1.15,4,4,0,0,1-1.21-3,5.55,5.55,0,0,1,1.26-3.46,8.68,8.68,0,0,1,3.86-2.63,18.22,18.22,0,0,1,6.44-1c3.46,0,6.09.71,7.87,2.13a7.46,7.46,0,0,1,2.68,6.22V35.71a2.8,2.8,0,0,0,2.42,3v1.68a4.36,4.36,0,0,1-2.26,1.47,10.08,10.08,0,0,1-3.2.53q-3.58,0-5.05-2.47a10.34,10.34,0,0,1-6.87,2.47,9.21,9.21,0,0,1-6.38-2.18,7.16,7.16,0,0,1-2.45-5.59,7.07,7.07,0,0,1,2.31-5.57m12.76,3.15a6.43,6.43,0,0,0-1.39-.63,5.19,5.19,0,0,0-1.55-.26,3.32,3.32,0,0,0-2.41.92,3.52,3.52,0,0,0-1,2.65,3.14,3.14,0,0,0,1,2.34,3.47,3.47,0,0,0,2.52.92,5.17,5.17,0,0,0,1.55-.24,4.91,4.91,0,0,0,1.28-.6Z"/><path class="cls-2" d="M477.87,40.75a4.69,4.69,0,0,1-2.2,1.47,9.3,9.3,0,0,1-3.15.52,7.41,7.41,0,0,1-3-.65,4,4,0,0,1-2-1.81,5.6,5.6,0,0,1-2.6,1.91,11.6,11.6,0,0,1-3.86.55,10.29,10.29,0,0,1-5.41-1.49,10.68,10.68,0,0,1-4-4.47,16,16,0,0,1-1.49-7.27,18.08,18.08,0,0,1,1.91-8.66,13.09,13.09,0,0,1,5.07-5.36,13.82,13.82,0,0,1,6.93-1.79c.6,0,1.66.07,3.2.21l-.15-3.15V8.14a2.41,2.41,0,0,0-.74-1.94,4.44,4.44,0,0,0-2.78-.63V3.41a22.14,22.14,0,0,1,4.78-1.78A18.89,18.89,0,0,1,473,.84a2.41,2.41,0,0,1,1.76.55,2.57,2.57,0,0,1,.55,1.86v33a2.8,2.8,0,0,0,2.52,3.05Zm-10.76-3.41V19a3.46,3.46,0,0,0-2.94-1.53,4.19,4.19,0,0,0-3.71,2.42c-.92,1.61-1.39,4.22-1.39,7.82s.52,6.1,1.55,7.91,2.37,2.7,4,2.7a3.14,3.14,0,0,0,2.47-.94"/><path class="cls-2" d="M500.3,34.6a3.7,3.7,0,0,1,.73,1.26,4.4,4.4,0,0,1,.32,1.48,3.35,3.35,0,0,1-1.26,2.17,10.35,10.35,0,0,1-3.5,2.13,14.58,14.58,0,0,1-11.81-.79A11.09,11.09,0,0,1,480.29,36a17,17,0,0,1-1.58-7.56,17,17,0,0,1,1.71-7.83,12.49,12.49,0,0,1,4.7-5.17,12.8,12.8,0,0,1,6.77-1.81,10.43,10.43,0,0,1,7.62,2.78,10.33,10.33,0,0,1,2.83,7.72,7.62,7.62,0,0,1-.73,3.65A2.75,2.75,0,0,1,499,29.09H487.64q.32,7.62,6.51,7.61a10.06,10.06,0,0,0,6.15-2.1M488.85,19q-1.11,1.81-1.21,6.07h5.3a1.09,1.09,0,0,0,1.11-.58,4.63,4.63,0,0,0,.26-1.78,8.94,8.94,0,0,0-.74-4.31,2.25,2.25,0,0,0-2-1.21A3.19,3.19,0,0,0,488.85,19"/><path class="cls-2" d="M510.72,41.83a11.26,11.26,0,0,1-4.18-2.18,4.35,4.35,0,0,1-1.62-3.36,4.18,4.18,0,0,1,1.05-3,3.5,3.5,0,0,1,2.68-1.13,3.55,3.55,0,0,1,2.49,1,3.18,3.18,0,0,1,1,2.46,3.45,3.45,0,0,1-.18,1.18,3.57,3.57,0,0,1-.66,1.08,3.22,3.22,0,0,0,1.58.66,12.12,12.12,0,0,0,2.47.23,5.17,5.17,0,0,0,2.81-.65,2,2,0,0,0,1-1.71A3,3,0,0,0,517.89,34a31.5,31.5,0,0,0-4.2-2.55c-2-1-3.45-1.91-4.47-2.6a10.11,10.11,0,0,1-2.7-2.78,7.58,7.58,0,0,1-1.18-4.33,6.9,6.9,0,0,1,2.94-5.78q2.94-2.21,8.14-2.2T524,15.52a5.24,5.24,0,0,1,2.5,4.33A3.45,3.45,0,0,1,523,23.42a3.54,3.54,0,0,1-2.34-.81,2.69,2.69,0,0,1-1-2.13,4.83,4.83,0,0,1,.21-1.39,3.34,3.34,0,0,1,.58-1.18,5,5,0,0,0-3.15-.84,4,4,0,0,0-2.63.78,2.5,2.5,0,0,0-.94,2,3.3,3.3,0,0,0,1.31,2.68,26.49,26.49,0,0,0,4.2,2.52,46.47,46.47,0,0,1,4.31,2.47,9.78,9.78,0,0,1,2.73,2.78,7.5,7.5,0,0,1,1.15,4.25,6.58,6.58,0,0,1-3.33,6.07,16,16,0,0,1-8.27,2,18,18,0,0,1-5.12-.76"/><path class="cls-1" d="M236,57.14q6.12,5.19,6.11,15.74a19.49,19.49,0,0,1-12.31,18.71,37.17,37.17,0,0,1-15.19,2.78h-3.89v8.15a14.14,14.14,0,0,0,.83,5.56,4.64,4.64,0,0,0,2.92,2.54,21.2,21.2,0,0,0,6.34.7,9.67,9.67,0,0,1-.55,3.24,8.6,8.6,0,0,1-1.49,2.69H191.83a7.7,7.7,0,0,1-1.57-2.69,9.69,9.69,0,0,1-.56-3.24c2.1,0,3.6-.35,4.49-1.07a4.25,4.25,0,0,0,1.35-3.56V63.16a4.4,4.4,0,0,0-1.35-3.66c-.89-.71-2.39-1.07-4.49-1.07a9.43,9.43,0,0,1,2-5.83c4.14,0,9.75-.15,16.86-.46,3.58-.13,5.92-.19,7-.19q14.25,0,20.37,5.19M223.28,63q-2.75-3.7-9.13-3.7a13.28,13.28,0,0,0-3.42.37V86.78a12,12,0,0,0,2.4.18q7.69,0,10.29-4.07A18.93,18.93,0,0,0,226,72.6,15.83,15.83,0,0,0,223.28,63"/><path class="cls-1" d="M251.57,112q-6.1-6.44-6.11-18.38a33,33,0,0,1,2.92-14.54A20.4,20.4,0,0,1,256.57,70,24,24,0,0,1,268.8,67a23.09,23.09,0,0,1,11.72,2.92,19.93,19.93,0,0,1,7.87,8.57,30.44,30.44,0,0,1,2.82,13.71,32.29,32.29,0,0,1-2.91,14.35,20.27,20.27,0,0,1-8.2,8.94,24.24,24.24,0,0,1-12.23,3q-10.19,0-16.3-6.44m21.86-3.93q1.57-3.7,1.57-13.71a76.2,76.2,0,0,0-.83-13q-.84-4.53-2.32-6.2a4.84,4.84,0,0,0-3.79-1.67c-2.16,0-3.79,1.24-4.86,3.7s-1.63,7.11-1.63,13.9a74.48,74.48,0,0,0,.84,12.83q.82,4.49,2.36,6.16a5,5,0,0,0,3.84,1.66q3.24,0,4.82-3.7"/><path class="cls-1" d="M333.82,69.08a8.39,8.39,0,0,1,1.94,5.84,9.77,9.77,0,0,1-2.08,6.48,7.68,7.68,0,0,1-10.56.74,5.47,5.47,0,0,1-1.9-4.16,7.5,7.5,0,0,1,.28-2.32,13.29,13.29,0,0,0-5.65,2.87v27.79a7.5,7.5,0,0,0,.65,3.52,4.12,4.12,0,0,0,2.54,1.8,19.82,19.82,0,0,0,5.7.61,9.23,9.23,0,0,1-.37,2.82,5.49,5.49,0,0,1-1.39,2.18H298.25a6.85,6.85,0,0,1-2.13-5,5.29,5.29,0,0,0,3.84-1.16c.78-.77,1.16-2.09,1.16-3.94V80.38a4.18,4.18,0,0,0-1.34-3.52c-.9-.67-2.49-1-4.77-1V71.68a34.41,34.41,0,0,1,8.1-3.11,33.18,33.18,0,0,1,7.83-1.34,3.36,3.36,0,0,1,3.15,1.58q.93,1.57.93,6.3a16.13,16.13,0,0,1,5.28-5.65A12.82,12.82,0,0,1,327.7,67q4.17,0,6.12,2.13"/><path class="cls-1" d="M356.7,76.4v26.12c0,1.85.37,3.14,1.11,3.85a4.37,4.37,0,0,0,3.15,1.06,8.6,8.6,0,0,0,3.7-.93,8.47,8.47,0,0,0,3.06-2.31,4.22,4.22,0,0,1,1.34,2.22,10,10,0,0,1,.42,2.69,7,7,0,0,1-1.49,4.16,10.49,10.49,0,0,1-4.44,3.34,17.81,17.81,0,0,1-7.13,1.3q-6.5,0-10.42-3.71t-3.94-12.32V76.4h-5.83V70.75a7.84,7.84,0,0,0,4.67-3.1,24.8,24.8,0,0,0,3.89-6.85,32.44,32.44,0,0,0,2.09-8.2,18.18,18.18,0,0,1,3.05-.28,6.15,6.15,0,0,1,5,1.9,6.34,6.34,0,0,1,1.62,4.21v9.73h10.74a36.19,36.19,0,0,1-.27,4.77,8.72,8.72,0,0,1-1.21,3.47Z"/><path class="cls-1" d="M418.8,110.12a4.44,4.44,0,0,0,3.28,1.66v2.6A9.67,9.67,0,0,1,417.5,117a21.66,21.66,0,0,1-6.25.93,8.7,8.7,0,0,1-5.37-1.67,8,8,0,0,1-3-4.63q-4.44,6.3-12.69,6.3-6.48,0-10.09-4t-3.62-10.74V77.7a2.33,2.33,0,0,0-1.15-2.22,7,7,0,0,0-3.38-.65V70.75a16.35,16.35,0,0,1,5.32-2.22,30.79,30.79,0,0,1,8.38-1.11,16.39,16.39,0,0,1,3.8.32,2.43,2.43,0,0,1,1.67,1.35,8.31,8.31,0,0,1,.46,3.24v31.12a7.77,7.77,0,0,0,1,4.3,3.59,3.59,0,0,0,3.2,1.44,6.77,6.77,0,0,0,3.66-1.16,12.28,12.28,0,0,0,3.1-2.82V77.7q0-2.86-5.19-2.87V70.75a15.73,15.73,0,0,1,5.42-2.27,33.14,33.14,0,0,1,8.66-1.06c2.53,0,4.2.29,5,.88s1.21,1.93,1.21,4v34.08a5.81,5.81,0,0,0,1.16,3.71"/><path class="cls-1" d="M466,110.53a11.19,11.19,0,0,1,5.88,10.24,12.71,12.71,0,0,1-3.52,8.66,23.93,23.93,0,0,1-9.3,6.2,33.47,33.47,0,0,1-12.37,2.27q-11,0-16.49-3.93a12.34,12.34,0,0,1-5.46-10.52A9.71,9.71,0,0,1,427,117.2a13.42,13.42,0,0,1,6.53-4.21,6.29,6.29,0,0,1-2.46-3.06,13.59,13.59,0,0,1-.6-4.35,5.58,5.58,0,0,1,1.3-3.38,7.6,7.6,0,0,1,3.61-2.55,17.2,17.2,0,0,1-6.81-6.39,16.82,16.82,0,0,1-2.45-8.8,16.24,16.24,0,0,1,2.36-8.66,16.48,16.48,0,0,1,7-6.11,24.84,24.84,0,0,1,11.16-2.27h.09a30.71,30.71,0,0,1,5.74.46q8.71,0,12-.23c2.19-.15,4.31-.39,6.34-.7.62,0,1.1.42,1.44,1.25a7,7,0,0,1,.51,2.64q0,4.17-3.62,4.17A24,24,0,0,1,464,73.34c-.49-.24-1.23-.55-2.22-.92a18.23,18.23,0,0,1,4.72,5.69,13.38,13.38,0,0,1,1.67,6.16q0,8.63-5.88,13.2t-16.44,4.59a30.26,30.26,0,0,1-5.84-.65v.28a3.37,3.37,0,0,0,1.76,3.19q1.76,1,6.39,1.35,12,.83,17.83,4.3m-9.95,17.74a6.94,6.94,0,0,0,2-5.09c0-1.86-1.12-3.23-3.38-4.13a56.36,56.36,0,0,0-10.6-2.54l-4.17-.84a10.54,10.54,0,0,0-1.2,5.38,9,9,0,0,0,2.59,6.76c1.73,1.66,4.54,2.5,8.43,2.5q4.26,0,6.3-2M443.25,76.59A24.33,24.33,0,0,0,442,85.48q0,10.47,5.46,10.46c2,0,3.4-1,4.26-3.14s1.3-5.31,1.3-9.64c0-3.39-.46-5.85-1.39-7.36a4.59,4.59,0,0,0-4.17-2.27,4.32,4.32,0,0,0-4.21,3.06"/><path class="cls-1" d="M520.77,110.12a4.46,4.46,0,0,0,3.29,1.66v2.6a9.76,9.76,0,0,1-4.59,2.59,21.61,21.61,0,0,1-6.25.93,8.7,8.7,0,0,1-5.37-1.67,8,8,0,0,1-3-4.63q-4.45,6.3-12.69,6.3-6.48,0-10.1-4t-3.61-10.74V77.7a2.33,2.33,0,0,0-1.16-2.22,7,7,0,0,0-3.38-.65V70.75a16.43,16.43,0,0,1,5.33-2.22,30.74,30.74,0,0,1,8.38-1.11,16.45,16.45,0,0,1,3.8.32,2.41,2.41,0,0,1,1.66,1.35,8.28,8.28,0,0,1,.47,3.24v31.12a7.69,7.69,0,0,0,1,4.3,3.57,3.57,0,0,0,3.19,1.44,6.72,6.72,0,0,0,3.66-1.16,12.32,12.32,0,0,0,3.11-2.82V77.7q0-2.86-5.19-2.87V70.75a15.64,15.64,0,0,1,5.42-2.27,33.09,33.09,0,0,1,8.66-1.06c2.53,0,4.2.29,5,.88s1.2,1.93,1.2,4v34.08a5.87,5.87,0,0,0,1.16,3.71"/><path class="cls-1" d="M565.65,104.1a6.19,6.19,0,0,1,1.29,2.22,7.58,7.58,0,0,1,.56,2.59c0,1.11-.74,2.4-2.23,3.85a18.56,18.56,0,0,1-6.15,3.75,25.75,25.75,0,0,1-20.84-1.39,19.68,19.68,0,0,1-7.92-8.62,29.77,29.77,0,0,1-2.78-13.33,30,30,0,0,1,3-13.8,22,22,0,0,1,8.29-9.13,22.61,22.61,0,0,1,12-3.19q8.42,0,13.43,4.91t5,13.61A13.51,13.51,0,0,1,568,92c-.86,1.57-2.41,2.36-4.63,2.36h-20q.55,13.42,11.49,13.43a17.85,17.85,0,0,0,10.84-3.7m-20.2-27.47q-1.94,3.2-2.13,10.7h9.36a1.9,1.9,0,0,0,1.94-1,8,8,0,0,0,.47-3.15c0-3.64-.44-6.17-1.3-7.59a4,4,0,0,0-3.52-2.13q-2.87,0-4.82,3.19"/><path class="cls-1" d="M584,116.83a19.52,19.52,0,0,1-7.36-3.84,7.62,7.62,0,0,1-2.87-5.93,7.33,7.33,0,0,1,1.85-5.23,6.16,6.16,0,0,1,4.72-2,6.25,6.25,0,0,1,4.4,1.67,5.66,5.66,0,0,1,1.81,4.35,6,6,0,0,1-.33,2.09,6.56,6.56,0,0,1-1.16,1.9,5.68,5.68,0,0,0,2.78,1.16,22.34,22.34,0,0,0,4.36.41,9,9,0,0,0,4.95-1.16,3.45,3.45,0,0,0,1.81-3,5.31,5.31,0,0,0-2.32-4.3,52.14,52.14,0,0,0-7.41-4.49q-5.19-2.79-7.87-4.59A17.63,17.63,0,0,1,576.62,89a13.38,13.38,0,0,1-2.08-7.64,12.15,12.15,0,0,1,5.18-10.19q5.19-3.89,14.36-3.89,9,0,13.38,3.2t4.4,7.64a6.09,6.09,0,0,1-6.2,6.3,6.18,6.18,0,0,1-4.12-1.44,4.64,4.64,0,0,1-1.72-3.75,8.47,8.47,0,0,1,.37-2.45,6.37,6.37,0,0,1,1-2.09,8.78,8.78,0,0,0-5.56-1.48A7,7,0,0,0,591,74.55a4.4,4.4,0,0,0-1.67,3.52,5.8,5.8,0,0,0,2.32,4.72,45.25,45.25,0,0,0,7.41,4.45,84.79,84.79,0,0,1,7.6,4.35,17.47,17.47,0,0,1,4.81,4.91,13.22,13.22,0,0,1,2,7.5q0,7.23-5.88,10.7t-14.59,3.47a31.17,31.17,0,0,1-9-1.34"/><path class="cls-1" d="M621.77,94.37q4.08-3.62,12-3.61a30.45,30.45,0,0,1,5.7.55,18.55,18.55,0,0,1,4.77,1.49V80.48q0-3.7-1.85-5.33a7.36,7.36,0,0,0-5-1.62,8.09,8.09,0,0,0-5,1.48,4.77,4.77,0,0,1,2.64,1.9,5.36,5.36,0,0,1,.88,3,6.09,6.09,0,0,1-2.13,4.82,7.91,7.91,0,0,1-5.37,1.85,7.82,7.82,0,0,1-5.65-2,7,7,0,0,1-2.13-5.28,9.81,9.81,0,0,1,2.22-6.11,15.25,15.25,0,0,1,6.81-4.63A32,32,0,0,1,641,66.77q9.16,0,13.89,3.75t4.72,11V106c0,3,1.42,4.76,4.27,5.37v3a7.83,7.83,0,0,1-4,2.59,17.66,17.66,0,0,1-5.65.93q-6.3,0-8.89-4.36a18.53,18.53,0,0,1-5.19,3.11,18.23,18.23,0,0,1-6.94,1.25q-6.94,0-11.26-3.85a12.61,12.61,0,0,1-4.3-9.86,12.44,12.44,0,0,1,4.07-9.82m22.51,5.56a10.82,10.82,0,0,0-2.46-1.11,8.81,8.81,0,0,0-2.73-.47,5.86,5.86,0,0,0-4.26,1.62,6.24,6.24,0,0,0-1.67,4.68,5.5,5.5,0,0,0,1.67,4.12,6.1,6.1,0,0,0,4.45,1.62A9.46,9.46,0,0,0,642,110a8.39,8.39,0,0,0,2.27-1.07Z"/><path class="cls-1" d="M677.76,116.83A19.6,19.6,0,0,1,670.4,113a7.62,7.62,0,0,1-2.87-5.93,7.33,7.33,0,0,1,1.85-5.23,6.16,6.16,0,0,1,4.72-2,6.25,6.25,0,0,1,4.4,1.67,5.62,5.62,0,0,1,1.81,4.35,6,6,0,0,1-.33,2.09,6.73,6.73,0,0,1-1.15,1.9A5.64,5.64,0,0,0,681.6,111a22.34,22.34,0,0,0,4.36.41,9,9,0,0,0,4.95-1.16,3.45,3.45,0,0,0,1.81-3,5.31,5.31,0,0,0-2.32-4.3A52.14,52.14,0,0,0,683,98.45q-5.19-2.79-7.87-4.59A17.63,17.63,0,0,1,670.35,89a13.38,13.38,0,0,1-2.08-7.64,12.15,12.15,0,0,1,5.18-10.19q5.19-3.89,14.36-3.89,9,0,13.38,3.2t4.4,7.64a6.09,6.09,0,0,1-6.2,6.3,6.18,6.18,0,0,1-4.12-1.44,4.64,4.64,0,0,1-1.72-3.75,8.83,8.83,0,0,1,.37-2.45,6.37,6.37,0,0,1,1-2.09,8.75,8.75,0,0,0-5.55-1.48,7,7,0,0,0-4.64,1.39,4.39,4.39,0,0,0-1.66,3.52,5.79,5.79,0,0,0,2.31,4.72,45.69,45.69,0,0,0,7.41,4.45,84.79,84.79,0,0,1,7.6,4.35,17.47,17.47,0,0,1,4.81,4.91,13.22,13.22,0,0,1,2,7.5q0,7.23-5.88,10.7t-14.59,3.47a31.22,31.22,0,0,1-9-1.34"/></g></g></svg>