<?xml version="1.0" encoding="utf-8"?>
<!-- Generator: Adobe Illustrator 23.0.1, SVG Export Plug-In . SVG Version: 6.00 Build 0)  -->
<svg version="1.1" id="Layer_1" xmlns="http://www.w3.org/2000/svg" xmlns:xlink="http://www.w3.org/1999/xlink" x="0px" y="0px"
	 viewBox="0 0 707.3 169.8" style="enable-background:new 0 0 707.3 169.8;" xml:space="preserve">
<style type="text/css">
	.st0{fill:#AA0B0B;}
	.st1{fill:#FFFFFF;}
</style>
<title>Asset 1</title>
<path class="st0" d="M0,0.1h48.9v166.1C48.9,166.2,0,142,0,102V0.1z"/>
<path class="st0" d="M88,0.1V54h48.5c4.5,0,12.6-5.4,13.9-9s0-31.9,0-36.4s-9.4-8.6-14.8-8.6H88z"/>
<path class="st0" d="M88,91.2c0,0,59.6,0,63-2.2c0.3,8.5,2.5,65.1-63,80.8V91.2z"/>
<path class="st1" d="M221.1,27.7c0,4.9-1.1,8.6-3.4,11.1c-2.3,2.6-5.7,3.9-10.2,3.9c-4.6,0-8.1-1.2-10.7-3.7
	c-2.6-2.5-3.9-6.1-3.9-10.8V11.3c0.1-0.7-0.2-1.5-0.7-2c-0.8-0.5-1.6-0.7-2.5-0.6c0-1.2,0.4-2.4,1.2-3.3h13.1
	c0.8,0.9,1.2,2.1,1.2,3.3c-0.9-0.1-1.8,0.1-2.5,0.6c-0.5,0.5-0.8,1.3-0.7,2v18c-0.1,2.1,0.5,4.3,1.6,6.1c1.1,1.6,3,2.4,4.9,2.3
	c1.8,0.2,3.7-0.6,4.8-2.1c1.1-1.6,1.6-3.5,1.5-5.4V11.3c0.1-0.8-0.3-1.5-0.9-2c-0.9-0.5-1.9-0.7-2.9-0.6c-0.1-1.2,0.3-2.4,1.1-3.3
	h11.6c0.8,0.9,1.2,2.1,1.2,3.3c-1-0.1-2,0.1-2.9,0.6c-0.6,0.5-0.9,1.2-0.9,2V27.7z"/>
<path class="st1" d="M254.3,40.6c-0.8,0.7-1.8,1.1-2.8,1.3c-1.3,0.3-2.6,0.5-3.9,0.5c-1.2,0.1-2.3-0.2-3.3-0.8
	c-0.8-0.7-1.2-1.7-1.1-2.7V22.5c0.1-1.1-0.2-2.1-0.9-2.9c-0.6-0.6-1.5-0.9-2.4-0.9c-1.4,0-2.8,0.6-3.6,1.7v16
	c-0.1,0.8,0.1,1.6,0.6,2.2c0.6,0.5,1.4,0.8,2.2,0.7c0,1.1-0.4,2.1-1.2,2.8h-11.9c-0.8-0.7-1.2-1.7-1.3-2.8c0.8,0.1,1.6-0.2,2.3-0.7
	c0.5-0.6,0.8-1.4,0.7-2.2V21.1c0.1-0.8-0.2-1.5-0.8-2c-0.8-0.5-1.8-0.7-2.7-0.6v-2.4c3-1.4,6.1-2.3,9.4-2.5c0.7,0,1.4,0.2,1.9,0.8
	c0.5,0.9,0.8,1.9,0.8,2.9c0.9-1.1,2.1-2,3.4-2.6c1.4-0.7,3-1,4.6-1c2.5,0,4.4,0.6,5.6,1.9c1.2,1.3,1.8,3.4,1.8,6.3v14.4
	c-0.1,1.5,1,2.9,2.5,3L254.3,40.6z"/>
<path class="st1" d="M267.8,36.4c-0.1,0.8,0.2,1.6,0.8,2.2c0.7,0.5,1.5,0.7,2.3,0.7c0,1.1-0.4,2.1-1.2,2.8h-11.9
	c-0.8-0.7-1.2-1.8-1.2-2.8c0.8,0.1,1.6-0.2,2.3-0.7c0.5-0.6,0.8-1.4,0.7-2.2V21.1c0.1-0.8-0.2-1.5-0.7-2.1c-0.8-0.5-1.8-0.7-2.8-0.6
	v-2.3c1.3-0.7,2.8-1.3,4.3-1.7c1.7-0.5,3.4-0.8,5.1-0.9c0.6-0.1,1.3,0.1,1.7,0.6c0.4,0.5,0.6,1.2,0.5,1.9V36.4z M267.4,8.5
	c-1,0.9-2.3,1.4-3.7,1.3c-1.3,0.1-2.6-0.4-3.6-1.3c-0.9-1-1.4-2.3-1.3-3.6c-0.1-1.3,0.4-2.6,1.4-3.6c1-0.9,2.3-1.4,3.7-1.4
	c1.3-0.1,2.7,0.4,3.6,1.4c0.9,1,1.4,2.2,1.4,3.6C268.8,6.3,268.3,7.6,267.4,8.5"/>
<path class="st1" d="M284.4,27.9l2.4,9.2l2.4-9.2l2-7.1c0.1-0.4,0.2-0.8,0.2-1.3c0-0.6-0.2-1.2-0.7-1.6c-0.6-0.4-1.3-0.6-2-0.5
	c-0.1-1.1,0.3-2.3,1-3.1h10.2c0.7,0.9,1.1,2,1,3.1c-0.7-0.1-1.4,0.2-2,0.6c-0.6,0.6-1,1.3-1.2,2.1l-5.5,16.8c-0.4,1.6-1,3.1-2,4.4
	c-0.9,0.9-2.1,1.3-3.3,1.3h-5.5l-8.3-22.4c-0.3-0.8-0.6-1.5-1.2-2.1c-0.5-0.4-1.2-0.7-1.9-0.6c-0.1-1.2,0.3-2.3,1.1-3.1h12
	c0.4,0.4,0.7,0.9,0.9,1.4c0.2,0.5,0.3,1.1,0.3,1.7c-0.6,0-1.3,0.2-1.8,0.6c-0.5,0.5-0.7,1.1-0.7,1.8c0,0.4,0.1,0.7,0.2,1.1
	L284.4,27.9z"/>
<path class="st1" d="M322.4,34.6c0.3,0.4,0.6,0.8,0.7,1.3c0.2,0.5,0.3,1,0.3,1.5c-0.1,0.9-0.6,1.6-1.3,2.2c-1,0.9-2.2,1.7-3.5,2.1
	c-3.9,1.4-8.2,1.1-11.8-0.8c-2-1.1-3.5-2.8-4.5-4.8c-1.1-2.4-1.6-5-1.6-7.6c-0.1-2.7,0.5-5.4,1.7-7.8c1-2.1,2.7-3.9,4.7-5.2
	c2-1.2,4.4-1.9,6.8-1.8c2.8-0.1,5.6,0.9,7.6,2.8c2,2.1,3,4.9,2.8,7.7c0.1,1.3-0.2,2.5-0.7,3.6c-0.5,0.9-1.6,1.4-2.6,1.3h-11.4
	c0.2,5.1,2.4,7.6,6.5,7.6C318.5,36.7,320.6,36,322.4,34.6 M310.9,19c-0.7,1.2-1.1,3.2-1.2,6.1h5.3c0.5,0.1,0.9-0.2,1.1-0.6
	c0.2-0.6,0.3-1.2,0.3-1.8c0.1-1.5-0.1-3-0.7-4.3c-0.4-0.7-1.2-1.2-2-1.2C312.5,17.3,311.4,18,310.9,19"/>
<path class="st1" d="M348.6,14.8c0.8,0.9,1.2,2.1,1.1,3.3c0.1,1.3-0.4,2.6-1.2,3.7c-0.8,0.9-2,1.5-3.2,1.4c-1,0-2-0.3-2.8-1
	c-0.7-0.6-1.1-1.5-1.1-2.4c0-0.4,0-0.9,0.1-1.3c-1.2,0.3-2.3,0.8-3.2,1.6v15.8c0,0.7,0.1,1.4,0.4,2c0.3,0.5,0.8,0.9,1.4,1
	c1.1,0.3,2.1,0.4,3.2,0.3c0,0.5-0.1,1.1-0.2,1.6c-0.2,0.5-0.4,0.9-0.8,1.2h-14c-0.8-0.7-1.2-1.8-1.2-2.8c0.8,0.1,1.6-0.2,2.2-0.7
	c0.5-0.6,0.7-1.4,0.6-2.2V21.2c0.1-0.8-0.2-1.5-0.8-2c-0.8-0.5-1.8-0.7-2.7-0.6v-2.4c2.8-1.4,5.9-2.3,9-2.5c0.7-0.1,1.4,0.3,1.8,0.9
	c0.4,1.1,0.6,2.4,0.5,3.6c0.7-1.3,1.8-2.4,3-3.2c1.2-0.9,2.7-1.4,4.2-1.4C346.4,13.4,347.7,13.9,348.6,14.8"/>
<path class="st1" d="M356.4,41.8c-1.5-0.4-3-1.2-4.2-2.2c-1-0.8-1.6-2.1-1.6-3.4c-0.1-1.1,0.3-2.2,1-3c1.4-1.4,3.7-1.5,5.2-0.2
	c0.7,0.6,1,1.5,1,2.5c0,0.4-0.1,0.8-0.2,1.2c-0.2,0.4-0.4,0.8-0.7,1.1c0.5,0.4,1,0.6,1.6,0.7c0.8,0.2,1.6,0.2,2.5,0.2
	c1,0.1,2-0.2,2.8-0.7c0.6-0.4,1-1,1-1.7c0-0.9-0.5-1.8-1.3-2.4c-1.3-1-2.7-1.8-4.2-2.5c-2-1-3.5-1.9-4.5-2.6c-1.1-0.7-2-1.7-2.7-2.8
	c-0.8-1.3-1.2-2.8-1.2-4.3c-0.1-2.3,1-4.5,2.9-5.8c2-1.5,4.7-2.2,8.1-2.2c3.5,0,6,0.6,7.6,1.8c1.5,0.9,2.5,2.6,2.5,4.3
	c0.1,1.9-1.4,3.5-3.3,3.6c-0.1,0-0.1,0-0.2,0c-0.9,0-1.7-0.3-2.3-0.8c-0.6-0.5-1-1.3-1-2.1c0-0.5,0.1-0.9,0.2-1.4
	c0.1-0.4,0.3-0.8,0.6-1.2c-0.9-0.6-2-0.9-3.1-0.8c-0.9-0.1-1.9,0.2-2.6,0.8c-0.6,0.5-1,1.2-0.9,2c0,1.1,0.5,2,1.3,2.7
	c1.3,1,2.7,1.8,4.2,2.5c1.5,0.7,2.9,1.6,4.3,2.5c1.1,0.7,2,1.7,2.8,2.8c0.8,1.3,1.2,2.7,1.2,4.2c0.1,2.5-1.2,4.8-3.3,6.1
	c-2.5,1.4-5.4,2.1-8.3,2C359.8,42.6,358.1,42.4,356.4,41.8"/>
<path class="st1" d="M386.8,36.4c-0.1,0.8,0.2,1.6,0.8,2.2c0.7,0.5,1.5,0.7,2.3,0.7c0,1.1-0.4,2.1-1.2,2.8h-11.9
	c-0.8-0.7-1.2-1.8-1.2-2.8c0.8,0.1,1.6-0.2,2.3-0.7c0.5-0.6,0.8-1.4,0.7-2.2V21.1c0.1-0.8-0.2-1.5-0.7-2.1c-0.8-0.5-1.8-0.7-2.8-0.6
	v-2.3c1.4-0.7,2.8-1.3,4.3-1.7c1.7-0.5,3.4-0.8,5.1-0.9c0.6-0.1,1.3,0.1,1.7,0.6c0.4,0.5,0.6,1.2,0.5,1.9V36.4z M386.4,8.5
	c-1,0.9-2.3,1.4-3.7,1.3c-1.3,0.1-2.6-0.4-3.6-1.3c-0.9-1-1.4-2.3-1.3-3.6c-0.1-1.3,0.5-2.6,1.4-3.6c1-0.9,2.3-1.4,3.6-1.4
	c1.3-0.1,2.6,0.4,3.6,1.4c0.9,1,1.4,2.2,1.4,3.6C387.9,6.3,387.4,7.6,386.4,8.5"/>
<path class="st1" d="M420,40.7c-0.6,0.7-1.3,1.2-2.2,1.5c-1,0.4-2.1,0.5-3.1,0.5c-1,0-2.1-0.2-3-0.7c-0.9-0.4-1.6-1-2-1.8
	c-0.7,0.9-1.6,1.5-2.6,1.9c-1.2,0.4-2.6,0.6-3.9,0.5c-1.9,0-3.8-0.5-5.4-1.5c-1.7-1.1-3.1-2.6-4-4.5c-1.1-2.3-1.6-4.8-1.5-7.3
	c-0.1-3,0.6-6,1.9-8.7c1.1-2.2,2.9-4.1,5.1-5.4c2.1-1.2,4.5-1.8,6.9-1.8c0.6,0,1.7,0.1,3.2,0.2l-0.2-3.1V8.1
	c0.1-0.7-0.2-1.4-0.7-1.9c-0.8-0.5-1.8-0.7-2.8-0.6V3.4c1.5-0.8,3.1-1.4,4.8-1.8c1.5-0.5,3.1-0.7,4.6-0.8c0.6-0.1,1.3,0.1,1.8,0.6
	c0.4,0.5,0.6,1.2,0.5,1.9v33c-0.1,1.5,1,2.9,2.5,3L420,40.7z M409.2,37.3V19c-0.7-1-1.8-1.6-2.9-1.5c-1.6,0-3,1-3.7,2.4
	c-0.9,1.6-1.4,4.2-1.4,7.8s0.5,6.1,1.5,7.9s2.4,2.7,4,2.7C407.7,38.4,408.6,38,409.2,37.3"/>
<path class="st1" d="M423.9,29.1c1.5-1.4,3.8-2,6.8-2c1.1,0,2.2,0.1,3.2,0.3c0.9,0.2,1.8,0.4,2.7,0.8v-7c0.1-1.1-0.3-2.2-1-3
	c-0.8-0.7-1.8-1-2.8-0.9c-1,0-2,0.3-2.8,0.8c0.6,0.2,1.1,0.5,1.5,1.1c0.3,0.5,0.5,1.1,0.5,1.7c0,1-0.4,2.1-1.2,2.7
	c-0.8,0.7-1.9,1.1-3,1c-1.2,0.1-2.3-0.4-3.2-1.1c-0.8-0.8-1.2-1.9-1.2-3c0-1.3,0.5-2.5,1.3-3.5c1-1.2,2.4-2.1,3.9-2.6
	c2.1-0.7,4.3-1.1,6.4-1c3.5,0,6.1,0.7,7.9,2.1c1.8,1.5,2.8,3.8,2.7,6.2v13.9c-0.1,1.5,0.9,2.8,2.4,3v1.7c-0.6,0.7-1.4,1.2-2.3,1.5
	c-1,0.3-2.1,0.5-3.2,0.5c-2.4,0-4.1-0.8-5-2.5c-1.9,1.6-4.4,2.5-6.9,2.5c-2.3,0.1-4.6-0.7-6.4-2.2c-1.6-1.4-2.5-3.5-2.5-5.6
	C421.6,32.5,422.4,30.5,423.9,29.1 M436.8,32.2c-0.4-0.3-0.9-0.5-1.4-0.6c-0.5-0.2-1-0.3-1.5-0.3c-0.9,0-1.8,0.3-2.4,0.9
	c-0.7,0.7-1.1,1.7-1,2.7c0,0.9,0.4,1.7,1,2.3c0.7,0.6,1.6,1,2.5,0.9c0.5,0,1-0.1,1.5-0.2c0.5-0.1,0.9-0.3,1.3-0.6L436.8,32.2z"/>
<path class="st1" d="M477.9,40.7c-0.6,0.7-1.3,1.2-2.2,1.5c-1,0.4-2.1,0.5-3.1,0.5c-1,0-2.1-0.2-3-0.7c-0.9-0.4-1.6-1-2-1.8
	c-0.7,0.9-1.6,1.5-2.6,1.9c-1.2,0.4-2.6,0.6-3.9,0.5c-1.9,0-3.8-0.5-5.4-1.5c-1.7-1.1-3.1-2.6-4-4.5c-1.1-2.3-1.6-4.8-1.5-7.3
	c-0.1-3,0.6-6,1.9-8.7c1.1-2.2,2.9-4.1,5.1-5.4c2.1-1.2,4.5-1.8,6.9-1.8c0.6,0,1.7,0.1,3.2,0.2l-0.1-3.1V8.1
	c0.1-0.7-0.2-1.4-0.7-1.9c-0.8-0.5-1.8-0.7-2.8-0.6V3.4c1.5-0.8,3.1-1.4,4.8-1.8c1.5-0.5,3.1-0.7,4.6-0.8c0.6-0.1,1.3,0.1,1.8,0.6
	c0.4,0.5,0.6,1.2,0.5,1.9v33c-0.1,1.5,1,2.9,2.5,3L477.9,40.7z M467.1,37.3V19c-0.7-1-1.8-1.6-2.9-1.5c-1.6,0-3,1-3.7,2.4
	c-0.9,1.6-1.4,4.2-1.4,7.8s0.5,6.1,1.5,7.9s2.4,2.7,4,2.7C465.5,38.4,466.4,38,467.1,37.3"/>
<path class="st1" d="M500.3,34.6c0.3,0.4,0.6,0.8,0.7,1.3c0.2,0.5,0.3,1,0.3,1.5c-0.1,0.9-0.6,1.6-1.3,2.2c-1,0.9-2.2,1.7-3.5,2.1
	c-3.9,1.4-8.2,1.1-11.8-0.8c-2-1.1-3.5-2.8-4.5-4.8c-1.1-2.4-1.6-5-1.6-7.6c-0.1-2.7,0.5-5.4,1.7-7.8c1-2.1,2.7-3.9,4.7-5.2
	c2-1.2,4.4-1.8,6.8-1.8c2.8-0.1,5.6,0.9,7.6,2.8c2,2.1,3,4.9,2.8,7.7c0.1,1.3-0.2,2.5-0.7,3.6c-0.5,0.9-1.6,1.4-2.6,1.3h-11.4
	c0.2,5.1,2.4,7.6,6.5,7.6C496.4,36.7,498.5,36,500.3,34.6 M488.9,19c-0.7,1.2-1.1,3.2-1.2,6.1h5.3c0.5,0.1,0.9-0.2,1.1-0.6
	c0.2-0.6,0.3-1.2,0.3-1.8c0.1-1.5-0.1-3-0.7-4.3c-0.4-0.7-1.2-1.2-2-1.2C490.4,17.2,489.4,17.9,488.9,19"/>
<path class="st1" d="M510.7,41.8c-1.5-0.4-3-1.2-4.2-2.2c-1-0.8-1.6-2.1-1.6-3.4c-0.1-1.1,0.3-2.2,1-3c0.7-0.7,1.7-1.2,2.7-1.1
	c0.9,0,1.8,0.4,2.5,1c0.7,0.6,1,1.5,1,2.5c0,0.4-0.1,0.8-0.2,1.2c-0.2,0.4-0.4,0.8-0.7,1.1c0.5,0.4,1,0.6,1.6,0.7
	c0.8,0.2,1.6,0.2,2.5,0.2c1,0.1,2-0.2,2.8-0.7c0.6-0.4,1-1,1-1.7c0-1-0.5-1.9-1.3-2.4c-1.3-1-2.7-1.8-4.2-2.5c-2-1-3.5-1.9-4.5-2.6
	c-1.1-0.7-2-1.7-2.7-2.8c-0.8-1.3-1.2-2.8-1.2-4.3c0-2.3,1.1-4.5,2.9-5.8c2-1.5,4.7-2.2,8.1-2.2c3.5,0,6,0.6,7.6,1.8
	c1.5,0.9,2.5,2.6,2.5,4.3c0.1,1.9-1.4,3.5-3.3,3.6c-0.1,0-0.1,0-0.2,0c-0.9,0-1.7-0.3-2.3-0.8c-0.6-0.5-1-1.3-1-2.1
	c0-0.5,0.1-0.9,0.2-1.4c0.1-0.4,0.3-0.8,0.6-1.2c-0.9-0.6-2-0.9-3.2-0.8c-0.9-0.1-1.9,0.2-2.6,0.8c-0.6,0.5-1,1.2-0.9,2
	c0,1.1,0.5,2,1.3,2.7c1.3,1,2.7,1.8,4.2,2.5c1.5,0.7,2.9,1.6,4.3,2.5c1.1,0.7,2,1.7,2.7,2.8c0.8,1.3,1.2,2.8,1.2,4.2
	c0.1,2.5-1.2,4.8-3.3,6.1c-2.5,1.4-5.4,2.1-8.3,2C514.1,42.6,512.4,42.4,510.7,41.8"/>
<path class="st0" d="M236,57.1c4.1,3.5,6.1,8.7,6.1,15.7c0.2,8.2-4.7,15.7-12.3,18.7c-4.8,2-10,2.9-15.2,2.8h-3.9v8.2
	c-0.1,1.9,0.2,3.8,0.8,5.6c0.6,1.2,1.6,2.2,2.9,2.5c2.1,0.6,4.2,0.8,6.3,0.7c0,1.1-0.2,2.2-0.6,3.2c-0.3,1-0.8,1.9-1.5,2.7h-26.9
	c-0.7-0.8-1.2-1.7-1.6-2.7c-0.4-1-0.6-2.1-0.6-3.2c2.1,0,3.6-0.3,4.5-1.1c1-0.9,1.5-2.2,1.4-3.6V63.2c0.1-1.4-0.4-2.7-1.4-3.7
	c-0.9-0.7-2.4-1.1-4.5-1.1c0-2.1,0.7-4.2,2-5.8c4.1,0,9.8-0.2,16.9-0.5c3.6-0.1,5.9-0.2,7-0.2C225.1,51.9,231.8,53.7,236,57.1
	 M223.3,63c-1.8-2.5-4.9-3.7-9.1-3.7c-1.2,0-2.3,0.1-3.4,0.4v27.1c0.8,0.1,1.6,0.2,2.4,0.2c5.1,0,8.6-1.4,10.3-4.1
	c1.8-3.1,2.7-6.7,2.6-10.3C226.2,69.2,225.2,65.8,223.3,63"/>
<path class="st0" d="M251.6,112c-4.1-4.3-6.1-10.4-6.1-18.4c-0.1-5,0.9-10,2.9-14.5c1.7-3.8,4.6-7,8.2-9.1c3.7-2.1,8-3.1,12.2-3
	c4.1-0.1,8.1,0.9,11.7,2.9c3.4,2,6.2,5,7.9,8.6c2,4.3,3,9,2.8,13.7c0.1,4.9-0.9,9.9-2.9,14.3c-1.8,3.7-4.6,6.9-8.2,8.9
	c-3.7,2.1-8,3.1-12.2,3C261.1,118.5,255.6,116.3,251.6,112 M273.4,108.1c1-2.5,1.6-7,1.6-13.7c0.1-4.3-0.2-8.7-0.8-13
	c-0.6-3-1.3-5.1-2.3-6.2c-0.9-1.1-2.3-1.7-3.8-1.7c-2.2,0-3.8,1.2-4.9,3.7s-1.6,7.1-1.6,13.9c-0.1,4.3,0.2,8.6,0.8,12.8
	c0.5,3,1.3,5,2.4,6.2c1,1.1,2.4,1.7,3.8,1.7C270.8,111.8,272.4,110.6,273.4,108.1"/>
<path class="st0" d="M333.8,69.1c1.4,1.6,2.1,3.7,1.9,5.8c0.1,2.3-0.6,4.6-2.1,6.5c-2.8,3-7.4,3.3-10.6,0.7c-1.2-1-1.9-2.6-1.9-4.2
	c0-0.8,0.1-1.6,0.3-2.3c-2.1,0.5-4,1.5-5.6,2.9v27.8c-0.1,1.2,0.2,2.4,0.6,3.5c0.6,0.9,1.5,1.6,2.5,1.8c1.9,0.5,3.8,0.7,5.7,0.6
	c0,1-0.1,1.9-0.4,2.8c-0.3,0.8-0.8,1.6-1.4,2.2h-24.7c-1.4-1.3-2.1-3.1-2.1-5c1.4,0.1,2.8-0.3,3.8-1.2c0.8-0.8,1.2-2.1,1.2-3.9V80.4
	c0.1-1.3-0.4-2.6-1.3-3.5c-0.9-0.7-2.5-1-4.8-1v-4.2c2.6-1.4,5.3-2.4,8.1-3.1c2.5-0.8,5.2-1.2,7.8-1.3c1.3-0.1,2.5,0.5,3.1,1.6
	c0.6,1,0.9,3.1,0.9,6.3c1.3-2.3,3.1-4.2,5.3-5.7c2.2-1.6,4.7-2.4,7.4-2.5C330.5,67,332.5,67.7,333.8,69.1"/>
<path class="st0" d="M356.7,76.4v26.1c0,1.8,0.4,3.1,1.1,3.8c0.9,0.8,2,1.1,3.1,1.1c1.3,0,2.6-0.3,3.7-0.9c1.2-0.5,2.2-1.3,3.1-2.3
	c0.7,0.6,1.1,1.4,1.3,2.2c0.3,0.9,0.4,1.8,0.4,2.7c0,1.5-0.6,3-1.5,4.2c-1.2,1.5-2.7,2.6-4.4,3.3c-2.3,0.9-4.7,1.4-7.1,1.3
	c-4.3,0-7.8-1.2-10.4-3.7c-2.6-2.5-3.9-6.6-3.9-12.3V76.4h-5.8v-5.7c1.9-0.4,3.5-1.5,4.7-3.1c1.7-2.1,3-4.4,3.9-6.8
	c1.1-2.6,1.8-5.4,2.1-8.2c1-0.2,2-0.3,3-0.3c1.9-0.2,3.7,0.5,5,1.9c1,1.2,1.6,2.7,1.6,4.2v9.7h10.7c0,1.6-0.1,3.2-0.3,4.8
	c-0.2,1.2-0.6,2.4-1.2,3.5H356.7z"/>
<path class="st0" d="M418.8,110.1c0.8,1,2,1.6,3.3,1.7v2.6c-1.3,1.3-2.8,2.2-4.6,2.6c-2,0.6-4.1,0.9-6.2,0.9
	c-1.9,0.1-3.8-0.5-5.4-1.7c-1.5-1.1-2.6-2.8-3-4.6c-3,4.2-7.2,6.3-12.7,6.3c-4.3,0-7.7-1.3-10.1-4c-2.4-2.7-3.6-6.2-3.6-10.7V77.7
	c0.1-0.9-0.4-1.8-1.1-2.2c-1.1-0.5-2.2-0.7-3.4-0.7v-4.1c1.6-1,3.4-1.8,5.3-2.2c2.7-0.8,5.5-1.1,8.4-1.1c1.3,0,2.6,0.1,3.8,0.3
	c0.7,0.2,1.4,0.7,1.7,1.3c0.4,1,0.5,2.1,0.5,3.2v31.1c-0.1,1.5,0.3,3,1,4.3c0.7,1,2,1.5,3.2,1.4c1.3,0,2.6-0.4,3.7-1.2
	c1.2-0.8,2.2-1.7,3.1-2.8V77.7c0-1.9-1.7-2.9-5.2-2.9v-4.1c1.6-1.1,3.5-1.9,5.4-2.3c2.8-0.7,5.7-1.1,8.7-1.1c2.5,0,4.2,0.3,5,0.9
	s1.2,1.9,1.2,4v34.1C417.6,107.7,418,109,418.8,110.1"/>
<path class="st0" d="M466,110.5c3.7,2,6,6,5.9,10.2c0,3.2-1.3,6.3-3.5,8.7c-2.6,2.8-5.8,4.9-9.3,6.2c-3.9,1.5-8.1,2.3-12.4,2.3
	c-7.3,0-12.8-1.3-16.5-3.9c-3.5-2.3-5.6-6.3-5.5-10.5c0-2.3,0.8-4.5,2.3-6.2c1.7-2,4-3.5,6.5-4.2c-1.1-0.7-2-1.8-2.5-3.1
	c-0.4-1.4-0.6-2.9-0.6-4.3c0-1.2,0.5-2.4,1.3-3.4c0.9-1.2,2.2-2.1,3.6-2.6c-2.8-1.5-5.2-3.7-6.8-6.4c-1.6-2.7-2.5-5.7-2.5-8.8
	c0-3.1,0.8-6.1,2.4-8.7c1.7-2.7,4.1-4.8,7-6.1c3.5-1.6,7.3-2.4,11.2-2.3h0.1c1.9,0,3.8,0.1,5.7,0.5c5.8,0,9.8-0.1,12-0.2
	c2.2-0.2,4.3-0.4,6.3-0.7c0.6,0,1.1,0.4,1.4,1.2c0.3,0.8,0.5,1.7,0.5,2.6c0,2.8-1.2,4.2-3.6,4.2c-1.8-0.4-3.5-0.9-5.1-1.7
	c-0.5-0.2-1.2-0.6-2.2-0.9c1.9,1.6,3.6,3.5,4.7,5.7c1,1.9,1.6,4,1.7,6.2c0,5.8-2,10.2-5.9,13.2c-3.9,3-9.4,4.6-16.4,4.6
	c-2,0-3.9-0.2-5.8-0.7v0.3c-0.1,1.3,0.6,2.6,1.8,3.2c1.2,0.7,3.3,1.1,6.4,1.3C456.2,106.8,462.1,108.2,466,110.5 M456,128.3
	c1.3-1.4,2.1-3.2,2-5.1c0-1.9-1.1-3.2-3.4-4.1c-3.4-1.2-7-2-10.6-2.5l-4.2-0.8c-0.9,1.7-1.3,3.5-1.2,5.4c-0.1,2.5,0.8,5,2.6,6.8
	c1.7,1.7,4.5,2.5,8.4,2.5C452.5,130.3,454.6,129.6,456,128.3 M443.2,76.6c-1,2.9-1.4,5.9-1.2,8.9c0,7,1.8,10.5,5.5,10.5
	c2,0,3.4-1,4.3-3.1s1.3-5.3,1.3-9.6c0-3.4-0.5-5.8-1.4-7.4c-0.9-1.5-2.5-2.3-4.2-2.3C445.5,73.5,443.8,74.7,443.2,76.6"/>
<path class="st0" d="M520.8,110.1c0.8,1,2,1.6,3.3,1.7v2.6c-1.3,1.3-2.9,2.2-4.6,2.6c-2,0.6-4.1,0.9-6.2,0.9
	c-1.9,0.1-3.8-0.5-5.4-1.7c-1.5-1.1-2.6-2.8-3-4.6c-3,4.2-7.2,6.3-12.7,6.3c-4.3,0-7.7-1.3-10.1-4c-2.4-2.7-3.6-6.2-3.6-10.7V77.7
	c0.1-0.9-0.4-1.8-1.2-2.2c-1.1-0.5-2.2-0.7-3.4-0.7v-4.1c1.6-1,3.4-1.8,5.3-2.2c2.7-0.8,5.5-1.1,8.4-1.1c1.3,0,2.6,0.1,3.8,0.3
	c0.7,0.2,1.3,0.7,1.7,1.3c0.4,1,0.5,2.1,0.5,3.2v31.1c-0.1,1.5,0.3,3,1,4.3c0.7,1,1.9,1.5,3.2,1.4c1.3,0,2.6-0.4,3.7-1.2
	c1.2-0.8,2.2-1.7,3.1-2.8V77.7c0-1.9-1.7-2.9-5.2-2.9v-4.1c1.6-1.1,3.5-1.9,5.4-2.3c2.8-0.7,5.7-1.1,8.7-1.1c2.5,0,4.2,0.3,5,0.9
	s1.2,1.9,1.2,4v34.1C519.6,107.7,520,109,520.8,110.1"/>
<path class="st0" d="M565.7,104.1c0.6,0.6,1,1.4,1.3,2.2c0.3,0.8,0.5,1.7,0.6,2.6c0,1.1-0.7,2.4-2.2,3.8c-1.8,1.6-3.9,2.9-6.2,3.8
	c-6.8,2.5-14.4,2-20.8-1.4c-3.5-2-6.2-5-7.9-8.6c-1.9-4.2-2.9-8.7-2.8-13.3c-0.1-4.8,0.9-9.5,3-13.8c1.8-3.8,4.7-6.9,8.3-9.1
	c3.6-2.2,7.8-3.3,12-3.2c5.6,0,10.1,1.6,13.4,4.9s5,7.8,5,13.6c0.1,2.2-0.3,4.4-1.3,6.4c-0.9,1.6-2.4,2.4-4.6,2.4h-20
	c0.4,8.9,4.2,13.4,11.5,13.4C558.8,107.8,562.6,106.5,565.7,104.1 M545.5,76.6c-1.3,2.1-2,5.7-2.1,10.7h9.4c0.8,0.1,1.6-0.3,1.9-1
	c0.4-1,0.5-2.1,0.5-3.2c0-3.6-0.4-6.2-1.3-7.6c-0.7-1.3-2-2.1-3.5-2.1C548.4,73.4,546.8,74.5,545.5,76.6"/>
<path class="st0" d="M584,116.8c-2.7-0.7-5.2-2-7.4-3.8c-1.8-1.4-2.9-3.6-2.9-5.9c-0.1-1.9,0.6-3.8,1.8-5.2c1.2-1.3,2.9-2.1,4.7-2
	c1.6,0,3.2,0.6,4.4,1.7c1.2,1.1,1.9,2.7,1.8,4.3c0,0.7-0.1,1.4-0.3,2.1c-0.3,0.7-0.7,1.3-1.2,1.9c0.8,0.6,1.8,1,2.8,1.2
	c1.4,0.3,2.9,0.4,4.4,0.4c1.7,0.1,3.4-0.3,5-1.2c1.1-0.6,1.8-1.7,1.8-3c0-1.7-0.9-3.3-2.3-4.3c-2.3-1.7-4.8-3.2-7.4-4.5
	c-3.5-1.9-6.1-3.4-7.9-4.6c-1.9-1.3-3.5-3-4.7-4.9c-1.4-2.3-2.2-4.9-2.1-7.6c-0.1-4,1.9-7.9,5.2-10.2c3.5-2.6,8.2-3.9,14.4-3.9
	c6,0,10.5,1.1,13.4,3.2s4.4,4.7,4.4,7.6c0.1,3.4-2.5,6.2-5.9,6.3c-0.1,0-0.2,0-0.3,0c-1.5,0-3-0.5-4.1-1.4c-1.1-0.9-1.8-2.3-1.7-3.8
	c0-0.8,0.1-1.7,0.4-2.4c0.2-0.8,0.5-1.5,1-2.1c-1.6-1.1-3.6-1.6-5.6-1.5c-1.7-0.1-3.3,0.4-4.6,1.3c-1.1,0.8-1.7,2.2-1.7,3.5
	c0,1.9,0.8,3.6,2.3,4.7c2.3,1.7,4.8,3.2,7.4,4.4c2.6,1.3,5.1,2.8,7.6,4.3c1.9,1.3,3.5,3,4.8,4.9c1.4,2.2,2.1,4.9,2,7.5
	c0,4.8-2,8.4-5.9,10.7s-8.8,3.5-14.6,3.5C590,118.2,586.9,117.7,584,116.8"/>
<path class="st0" d="M621.8,94.4c2.7-2.4,6.7-3.6,12-3.6c1.9,0,3.8,0.2,5.7,0.6c1.6,0.3,3.3,0.8,4.8,1.5V80.5c0-2.5-0.6-4.2-1.8-5.3
	c-1.4-1.1-3.2-1.7-5-1.6c-1.8-0.1-3.5,0.4-5,1.5c1.1,0.3,2,1,2.6,1.9c0.6,0.9,0.9,1.9,0.9,3c0.1,1.8-0.7,3.6-2.1,4.8
	c-1.5,1.3-3.4,1.9-5.4,1.8c-2.1,0.1-4.1-0.6-5.7-2c-1.4-1.4-2.2-3.3-2.1-5.3c0-2.2,0.8-4.4,2.2-6.1c1.8-2.1,4.2-3.7,6.8-4.6
	c3.6-1.3,7.5-1.9,11.3-1.8c6.1,0,10.7,1.2,13.9,3.8s4.7,6.2,4.7,11V106c0,3,1.4,4.8,4.3,5.4v3c-1,1.3-2.4,2.2-4,2.6
	c-1.8,0.6-3.7,0.9-5.7,0.9c-4.2,0-7.2-1.5-8.9-4.4c-1.5,1.3-3.3,2.4-5.2,3.1c-2.2,0.9-4.6,1.3-6.9,1.2c-4.6,0-8.4-1.3-11.3-3.8
	c-2.8-2.5-4.4-6.1-4.3-9.9C617.5,100.5,619,96.9,621.8,94.4 M644.2,99.9c-0.8-0.5-1.6-0.8-2.5-1.1c-0.9-0.3-1.8-0.5-2.7-0.5
	c-1.6-0.1-3.1,0.5-4.3,1.6c-1.2,1.3-1.8,3-1.7,4.7c0,1.5,0.6,3,1.7,4.1c1.2,1.1,2.8,1.7,4.5,1.6c0.9,0,1.9-0.1,2.8-0.4
	c0.8-0.2,1.6-0.6,2.3-1.1L644.2,99.9z"/>
<path class="st0" d="M677.8,116.8c-2.7-0.7-5.2-2-7.4-3.8c-1.8-1.4-2.9-3.6-2.9-5.9c-0.1-1.9,0.6-3.8,1.8-5.2c1.2-1.3,2.9-2.1,4.7-2
	c1.6,0,3.2,0.6,4.4,1.7c1.2,1.1,1.9,2.7,1.8,4.3c0,0.7-0.1,1.4-0.3,2.1c-0.3,0.7-0.7,1.3-1.2,1.9c0.8,0.6,1.8,1,2.8,1.2
	c1.4,0.3,2.9,0.4,4.4,0.4c1.7,0.1,3.4-0.3,5-1.2c1.1-0.6,1.8-1.7,1.8-3c0-1.7-0.9-3.3-2.3-4.3c-2.3-1.7-4.8-3.2-7.4-4.5
	c-3.5-1.9-6.1-3.4-7.9-4.6c-1.9-1.3-3.5-2.9-4.8-4.9c-1.4-2.3-2.2-4.9-2.1-7.6c-0.1-4,1.9-7.9,5.2-10.2c3.5-2.6,8.2-3.9,14.4-3.9
	c6,0,10.5,1.1,13.4,3.2s4.4,4.7,4.4,7.6c0.1,3.4-2.5,6.2-5.9,6.3c-0.1,0-0.2,0-0.3,0c-1.5,0-3-0.5-4.1-1.4c-1.1-0.9-1.8-2.3-1.7-3.8
	c0-0.8,0.1-1.7,0.4-2.4c0.2-0.8,0.5-1.5,1-2.1c-1.6-1.1-3.6-1.6-5.5-1.5c-1.7-0.1-3.3,0.4-4.6,1.4c-1.1,0.9-1.7,2.2-1.7,3.5
	c0,1.9,0.8,3.6,2.3,4.7c2.3,1.7,4.8,3.2,7.4,4.4c2.6,1.3,5.1,2.8,7.6,4.3c1.9,1.3,3.5,3,4.8,4.9c1.4,2.2,2.1,4.9,2,7.5
	c0,4.8-2,8.4-5.9,10.7c-3.9,2.3-8.8,3.5-14.6,3.5C683.7,118.2,680.6,117.8,677.8,116.8"/>
</svg>
