<svg xmlns="http://www.w3.org/2000/svg" viewBox="0 0 197 70.92"><defs><style>.cls-1{fill:#ffd200;}.cls-2{fill:#fcb316;}.cls-3{fill:#00a9e8;}.cls-4{fill:#002b37;}</style></defs><title>Asset 1</title><g id="Layer_2" data-name="Layer 2"><g id="Layer_1-2" data-name="Layer 1"><rect class="cls-1" x="12.34" y="8.32" width="39.16" height="1.89" rx="0.94"/><polygon class="cls-1" points="19.74 25.66 16.04 23.22 12.34 25.66 12.34 14.11 19.74 14.11 19.74 25.66"/><path class="cls-2" d="M49.82,14.18H13.15A4.94,4.94,0,0,1,8.23,9.26h0a4.94,4.94,0,0,1,4.92-4.92H49.63A1.87,1.87,0,0,0,51.5,2.47,2.47,2.47,0,0,0,49,0H11.88A11.92,11.92,0,0,0,0,11.88V49.19A11.92,11.92,0,0,0,11.88,61.08h20L44,70.48a2.05,2.05,0,0,0,3.31-1.63l0-7.77H49a2.47,2.47,0,0,0,2.46-2.47V15.86A1.68,1.68,0,0,0,49.82,14.18ZM17.41,53.43a2.07,2.07,0,1,1,2.06-2.07A2.07,2.07,0,0,1,17.41,53.43Zm10.47,0A2.07,2.07,0,1,1,30,51.36,2.07,2.07,0,0,1,27.88,53.43Zm10.63,0a2.07,2.07,0,1,1,2.07-2.07A2.07,2.07,0,0,1,38.51,53.43Z"/><path class="cls-1" d="M168.24,17.2a12.13,12.13,0,0,1,2.06-.81,10.31,10.31,0,0,1,3-.62,3.66,3.66,0,0,1,2.17.62,8.47,8.47,0,0,1,1.29-.68,13.58,13.58,0,0,1,1.78-.62c.35-.09.67-.15,1-.2a6.05,6.05,0,0,1,.82-.07c.26,0,.39,0,.39.07v.27l-1.3,1.7a4.51,4.51,0,0,1-1.83,1.23c-.32.13-.62.27-.91.4a5.16,5.16,0,0,1-1,.34,9.9,9.9,0,0,1-3,.61,4.12,4.12,0,0,1-2.17-.61,8.85,8.85,0,0,1-3,1.29,8.33,8.33,0,0,1-1,.21,7.49,7.49,0,0,1-.79.07c-.39,0-.5-.12-.34-.34l1.3-1.7A4.6,4.6,0,0,1,168.24,17.2Z"/><path class="cls-1" d="M137.72,51c-.29,0-.43,0-.43-.14l1.65-18.78h-4l-1.51,17.45c0,.1-.18.22-.55.38a10.17,10.17,0,0,1-1.34.47c-.54.16-1.11.3-1.71.43a7.52,7.52,0,0,1-1.6.19c-.29,0-.43,0-.43-.14l2-23.18a10.27,10.27,0,0,1,.52-2.36,4.16,4.16,0,0,1,1.09-1.8,5.67,5.67,0,0,1,.81-.57,6,6,0,0,1,1.18-.52,9.34,9.34,0,0,1,.9-.3l1.32-.41,1.25-.28.69-.14a13.51,13.51,0,0,1,2.51-.29,7.2,7.2,0,0,1,2.39.36,3.4,3.4,0,0,1,1.49.92,3.56,3.56,0,0,1,.78,1.68,8.26,8.26,0,0,1,.16,2.39l-2,23.17c0,.13-.34.3-.92.52s-1.23.43-1.92.62A9.87,9.87,0,0,1,137.72,51Zm1.6-23.32a8,8,0,0,0-.14-2.34,3.29,3.29,0,0,0-.61-1.54,3.08,3.08,0,0,0-.78-.63,5.16,5.16,0,0,0-1.12-.41,6.56,6.56,0,0,0-.75,1.61,9.45,9.45,0,0,0-.43,2l-.38,4.11h4Z"/><path class="cls-1" d="M149.3,55.47a5.42,5.42,0,0,1-.94.12,7.32,7.32,0,0,0-.81.07q-.57,0-.33-.24l1.28-1.18a4.16,4.16,0,0,0,.87-1.11,3,3,0,0,0,.4-1.11l.1-1.09a5.86,5.86,0,0,1-2.06-.35,3.68,3.68,0,0,1-1.35-.83A5.15,5.15,0,0,1,145.8,48a7.75,7.75,0,0,1-.19-2.37l1.56-18a10.27,10.27,0,0,1,.52-2.36,4.16,4.16,0,0,1,1.09-1.8,5.67,5.67,0,0,1,.81-.57,5.75,5.75,0,0,1,1.18-.52,9.34,9.34,0,0,1,.9-.3L153,21.7l1.25-.28.69-.14a13.51,13.51,0,0,1,2.51-.29,6.85,6.85,0,0,1,2.38.36,4.8,4.8,0,0,1,1.57.9,3,3,0,0,1,.82,1.2,2.94,2.94,0,0,1,.19,1.23l-.14,1.19c0,.09-.18.22-.54.37a13,13,0,0,1-1.33.48c-.52.15-1.08.3-1.68.42a7.59,7.59,0,0,1-1.6.19c-.29,0-.43,0-.43-.14l.09-1.18a1.88,1.88,0,0,0-.21-1.18,3.6,3.6,0,0,0-.68-1,3.08,3.08,0,0,0-.78-.63,5.16,5.16,0,0,0-1.12-.41,6.56,6.56,0,0,0-.75,1.61,8.86,8.86,0,0,0-.43,2l-1.61,18a9.15,9.15,0,0,0,.12,2.34,2.88,2.88,0,0,0,.73,1.63,3.52,3.52,0,0,0,1.85.95,3.55,3.55,0,0,0,1-1.94l.09-1.18c0-.1.19-.22.55-.38a9.86,9.86,0,0,1,1.35-.47c.53-.16,1.1-.3,1.7-.43a7.61,7.61,0,0,1,1.61-.19c.28,0,.41,0,.38.14l-.1,1.19a3.72,3.72,0,0,1-1.42,2.5,3.8,3.8,0,0,1-.71.47c-.28.16-.6.32-.94.48a9.12,9.12,0,0,1-.93.33c-.33.09-.68.2-1.06.33l0,.61a4.1,4.1,0,0,1-1.46,2.51l-1.28,1.18A9.11,9.11,0,0,1,149.3,55.47Z"/><path class="cls-1" d="M179.5,24a3.21,3.21,0,0,0-.73-1.68,4.36,4.36,0,0,0-1.56-.9,7,7,0,0,0-2.37-.38,13.53,13.53,0,0,0-2.55.29l-.67.14-1.27.28-1.33.41a9.34,9.34,0,0,0-.9.3,6.29,6.29,0,0,0-1.18.52,6.15,6.15,0,0,0-.8.57,4.07,4.07,0,0,0-1.09,1.8,9.77,9.77,0,0,0-.52,2.36l-2,23.18c0,.09.14.14.42.14a7.86,7.86,0,0,0,1.63-.19c.62-.13,1.19-.27,1.71-.43a11.33,11.33,0,0,0,1.34-.47c.38-.16.57-.28.57-.38l1.47-17.45h4L172,50.84c0,.09.14.14.42.14a10,10,0,0,0,2.37-.33c.72-.19,1.37-.4,2-.62s.89-.39.92-.52l2-23.17A9.47,9.47,0,0,0,179.5,24ZM174,27.66l-.24,2.79h-4l.38-4.11a8.84,8.84,0,0,1,.42-2,6.55,6.55,0,0,1,.76-1.61,5.25,5.25,0,0,1,1.11.41,2.77,2.77,0,0,1,.78.63,3.28,3.28,0,0,1,.62,1.54A8.73,8.73,0,0,1,174,27.66Z"/><path class="cls-1" d="M191.82,49.56a21.67,21.67,0,0,1-2.27.71q-1.56.38-1.89.42a15,15,0,0,1-2.56.29,6.93,6.93,0,0,1-2.36-.36,4,4,0,0,1-1.52-.87,3.84,3.84,0,0,1-.73-1.75,8,8,0,0,1-.16-2.37l1.56-18a9.32,9.32,0,0,1,.52-2.36,4.06,4.06,0,0,1,1.08-1.8,5.67,5.67,0,0,1,.81-.57,6,6,0,0,1,1.18-.52,9.34,9.34,0,0,1,.9-.3l1.32-.41,1.26-.28.68-.14a13.6,13.6,0,0,1,2.51-.29,7.2,7.2,0,0,1,2.39.36,3.34,3.34,0,0,1,1.49.92,3.56,3.56,0,0,1,.78,1.68,7.92,7.92,0,0,1,.16,2.39l-1.6,18a9.38,9.38,0,0,1-.5,2.41,4.21,4.21,0,0,1-1.07,1.75A5.83,5.83,0,0,1,191.82,49.56Zm-3.26-.33a5.62,5.62,0,0,0,.8-1.61,8.72,8.72,0,0,0,.42-2l1.57-18a8.34,8.34,0,0,0-.15-2.34,3.19,3.19,0,0,0-.61-1.54,2.77,2.77,0,0,0-.78-.63,5.25,5.25,0,0,0-1.11-.41,6.2,6.2,0,0,0-.76,1.61,9.45,9.45,0,0,0-.43,2l-1.6,18a8.33,8.33,0,0,0,.12,2.34,2.82,2.82,0,0,0,.73,1.63A3.72,3.72,0,0,0,188.56,49.23Z"/><polygon class="cls-3" points="69.32 28.2 75.9 28.2 75.9 23.14 69.32 23.14 69.32 21.14 76.56 21.14 76.56 16.03 64.05 16.03 64.05 35.53 76.69 35.53 76.69 30.41 69.32 30.41 69.32 28.2"/><path class="cls-3" d="M85.92,16H78v19.5h7.91a9.41,9.41,0,0,0,9.48-9.75A9.41,9.41,0,0,0,85.92,16Zm0,14.39H83.28V21.14h2.64c2.65,0,4.37,1.82,4.37,4.64S88.57,30.42,85.92,30.42Z"/><path class="cls-3" d="M106.47,28.68c0,1.42-.74,2.05-2.38,2.05s-2.37-.63-2.37-2.05V16H96.45V29c0,4.1,3.07,6.86,7.64,6.86s7.65-2.76,7.65-6.86V16h-5.27Z"/><path class="cls-3" d="M126,29.72a4.86,4.86,0,0,1-7.83-3.94,4.6,4.6,0,0,1,4.85-5,4.26,4.26,0,0,1,3.81,2v0c0-.15.09-.3.14-.44a4.82,4.82,0,0,1,1.32-2.14,6.42,6.42,0,0,1,.92-.65,7,7,0,0,1,1.3-.58h0a10.11,10.11,0,0,0-17.64,6.75A9.9,9.9,0,0,0,123,35.9a10.57,10.57,0,0,0,2.47-.3Z"/><path class="cls-4" d="M65.32,40.93H67v.79H65.32v.85h1.92v.78H64.29v-4h2.95v.76H65.32Z"/><path class="cls-4" d="M68.29,43.35v-4h1.62a2.38,2.38,0,0,1,.81.14,1.92,1.92,0,0,1,.65.42,2,2,0,0,1,.45,2.27,2,2,0,0,1-.45.64,1.92,1.92,0,0,1-.65.42,2.16,2.16,0,0,1-.81.15Zm2.63-2a1.32,1.32,0,0,0-.09-.48,1.47,1.47,0,0,0-.22-.39.91.91,0,0,0-.32-.27.75.75,0,0,0-.38-.1h-.58v2.49h.58a.76.76,0,0,0,.39-.1,1.1,1.1,0,0,0,.32-.29,1.71,1.71,0,0,0,.22-.4A1.44,1.44,0,0,0,70.92,41.32Z"/><path class="cls-4" d="M76.63,39.31v2.06a2.56,2.56,0,0,1-.12.79,2.14,2.14,0,0,1-.37.64,1.92,1.92,0,0,1-.61.43,2.28,2.28,0,0,1-1.68,0,1.82,1.82,0,0,1-.61-.43,1.92,1.92,0,0,1-.36-.64,2.56,2.56,0,0,1-.12-.79V39.31h1v2.06a1.5,1.5,0,0,0,.08.5,1,1,0,0,0,.19.36,1,1,0,0,0,.3.21.94.94,0,0,0,.37.07,1,1,0,0,0,.38-.07.73.73,0,0,0,.3-.22,1.25,1.25,0,0,0,.2-.36,1.45,1.45,0,0,0,.07-.49V39.31Z"/><path class="cls-4" d="M78.62,39.31h.86l1.56,4H80l-.26-.76H78.35l-.25.75h-1ZM78.5,42h1.07L79,40.28Z"/><path class="cls-4" d="M85.62,43.35H84.45L83.59,42H83v1.31H82v-4h2a1.64,1.64,0,0,1,.6.1,1.7,1.7,0,0,1,.47.29,1.46,1.46,0,0,1,.29.44,1.32,1.32,0,0,1,.11.53,1.34,1.34,0,0,1-.22.74,1.43,1.43,0,0,1-.59.5Zm-2.61-2h.79a.43.43,0,0,0,.22-.06.64.64,0,0,0,.17-.16.7.7,0,0,0,.11-.21.93.93,0,0,0,0-.23.59.59,0,0,0,0-.22.57.57,0,0,0-.13-.21.65.65,0,0,0-.18-.15.46.46,0,0,0-.22-.06H83Z"/><path class="cls-4" d="M86.54,43.35v-4h1.62a2.36,2.36,0,0,1,.8.14,2.06,2.06,0,0,1,.66.42,2.08,2.08,0,0,1,.45,2.27,2,2,0,0,1-.45.64,2.06,2.06,0,0,1-.66.42,2.15,2.15,0,0,1-.8.15Zm2.62-2a1.56,1.56,0,0,0-.08-.48,1.26,1.26,0,0,0-.23-.39.88.88,0,0,0-.31-.27.75.75,0,0,0-.38-.1h-.59v2.49h.59a.75.75,0,0,0,.38-.1,1.13,1.13,0,0,0,.33-.29,1.39,1.39,0,0,0,.21-.4A1.44,1.44,0,0,0,89.16,41.32Z"/><path class="cls-4" d="M92.93,39.28a2.31,2.31,0,0,1,.86.16,2,2,0,0,1,.65.44,2.08,2.08,0,0,1,.4.65,2.14,2.14,0,0,1,.14.8,2.34,2.34,0,0,1-.15.85,1.87,1.87,0,0,1-.42.64,2,2,0,0,1-.65.42,2.39,2.39,0,0,1-1.72,0,1.63,1.63,0,0,1-.64-.44,1.6,1.6,0,0,1-.39-.65,2.28,2.28,0,0,1-.13-.8,2.36,2.36,0,0,1,.14-.8,1.93,1.93,0,0,1,.41-.65,2,2,0,0,1,.65-.44A2.3,2.3,0,0,1,92.93,39.28Zm0,3.31a.93.93,0,0,0,.42-.09.87.87,0,0,0,.32-.25,1.24,1.24,0,0,0,.19-.4,1.72,1.72,0,0,0,.07-.52,1.88,1.88,0,0,0-.06-.49,1.13,1.13,0,0,0-.18-.4.84.84,0,0,0-.31-.28,1,1,0,0,0-.45-.1.88.88,0,0,0-.45.11.76.76,0,0,0-.32.27,1.13,1.13,0,0,0-.18.4,1.93,1.93,0,0,0-.06.49,1.57,1.57,0,0,0,.07.49,1.22,1.22,0,0,0,.18.4.84.84,0,0,0,.31.28A1.06,1.06,0,0,0,92.93,42.59Z"/><path class="cls-4" d="M99.79,43.39a2.52,2.52,0,0,1-.67-.09,1.87,1.87,0,0,1-.58-.24,1.32,1.32,0,0,1-.43-.38.92.92,0,0,1-.2-.5l1-.11a.44.44,0,0,0,.11.25.62.62,0,0,0,.22.17,1.23,1.23,0,0,0,.29.09,1.63,1.63,0,0,0,.31,0,1,1,0,0,0,.54-.12.37.37,0,0,0,.19-.3.28.28,0,0,0-.11-.24,1,1,0,0,0-.28-.16,3.44,3.44,0,0,0-.41-.11l-.46-.1-.47-.13a1.66,1.66,0,0,1-.4-.2.89.89,0,0,1-.29-.29.77.77,0,0,1-.11-.42,1,1,0,0,1,.17-.61,1.24,1.24,0,0,1,.41-.38,2.07,2.07,0,0,1,.56-.2,3.21,3.21,0,0,1,.6-.06,3,3,0,0,1,.69.08,2,2,0,0,1,.53.22,1.38,1.38,0,0,1,.37.35,1,1,0,0,1,.16.44l-1,.12a.41.41,0,0,1,0-.09.44.44,0,0,0-.12-.17.55.55,0,0,0-.24-.15,1,1,0,0,0-.42-.07,1,1,0,0,0-.45.09.28.28,0,0,0-.18.25.28.28,0,0,0,.11.24.83.83,0,0,0,.28.16l.41.12.46.1.47.14a1.66,1.66,0,0,1,.4.2,1,1,0,0,1,.29.3.87.87,0,0,1,.11.44,1.39,1.39,0,0,1-.1.5,1.15,1.15,0,0,1-.31.42,1.7,1.7,0,0,1-.57.29A2.57,2.57,0,0,1,99.79,43.39Z"/><path class="cls-4" d="M103.7,39.31h.87l1.56,4h-1l-.26-.76h-1.38l-.25.75h-1.06ZM103.59,42h1.06l-.52-1.68Z"/><path class="cls-4" d="M110.49,40.92l-.92,1.8H109l-.92-1.8v2.43h-1v-4h1.16l1,2.24,1.07-2.24h1.15v4h-1Z"/><path class="cls-4" d="M112.77,43.35v-4h1.89a1.36,1.36,0,0,1,1,.39,1.27,1.27,0,0,1,.28.44,1.32,1.32,0,0,1,.1.53,1.4,1.4,0,0,1-.1.54,1.45,1.45,0,0,1-.3.43,1.28,1.28,0,0,1-.43.3,1.41,1.41,0,0,1-.54.11h-.89v1.3Zm1-2h.76a.37.37,0,0,0,.21-.06.49.49,0,0,0,.16-.16.7.7,0,0,0,.11-.21.91.91,0,0,0,0-.23.57.57,0,0,0,0-.22.74.74,0,0,0-.13-.21.8.8,0,0,0-.17-.15.42.42,0,0,0-.21-.06h-.72Z"/><path class="cls-4" d="M117.82,39.31h.86l1.57,4h-1l-.27-.76h-1.38l-.25.75h-1ZM117.71,42h1.06l-.52-1.68Z"/><path class="cls-4" d="M121.15,43.35v-4h1v4Z"/><path class="cls-4" d="M125,39.28a2.41,2.41,0,0,1,.87.16,2.08,2.08,0,0,1,.64.44,1.91,1.91,0,0,1,.4.65,2.14,2.14,0,0,1,.14.8,2.34,2.34,0,0,1-.15.85,1.87,1.87,0,0,1-.42.64,1.92,1.92,0,0,1-.65.42,2.39,2.39,0,0,1-1.72,0,1.7,1.7,0,0,1-.64-.44,1.85,1.85,0,0,1-.39-.65,2.28,2.28,0,0,1-.13-.8,2.36,2.36,0,0,1,.14-.8,2.1,2.1,0,0,1,.41-.65,2,2,0,0,1,.65-.44A2.3,2.3,0,0,1,125,39.28Zm0,3.31a.93.93,0,0,0,.42-.09.87.87,0,0,0,.32-.25,1.24,1.24,0,0,0,.19-.4,1.72,1.72,0,0,0,.07-.52,1.88,1.88,0,0,0-.06-.49.87.87,0,0,0-.18-.4.84.84,0,0,0-.31-.28,1,1,0,0,0-.45-.1.91.91,0,0,0-.45.11.74.74,0,0,0-.31.27.87.87,0,0,0-.18.4,2,2,0,0,0,0,1,1.22,1.22,0,0,0,.18.4.92.92,0,0,0,.31.28A1.06,1.06,0,0,0,125,42.59Z"/></g></g></svg>