<svg xmlns="http://www.w3.org/2000/svg" xmlns:xlink="http://www.w3.org/1999/xlink" viewBox="0 0 477.4 133.6"><defs><style>.cls-1{fill:none;}.cls-2{fill:url(#linear-gradient);}.cls-3{fill:url(#linear-gradient-2);}.cls-4{fill:url(#linear-gradient-3);}.cls-5{fill:url(#linear-gradient-4);}.cls-6{fill:url(#linear-gradient-5);}.cls-7{fill:url(#linear-gradient-6);}.cls-8{fill:url(#linear-gradient-7);}.cls-9{fill:url(#linear-gradient-8);}</style><linearGradient id="linear-gradient" x1="3.82" y1="61.59" x2="253.82" y2="141.59" gradientTransform="matrix(1, 0, 0, -1, 0, 142.2)" gradientUnits="userSpaceOnUse"><stop offset="0" stop-color="#3383c5"/><stop offset="0.45" stop-color="#3269b2"/><stop offset="1" stop-color="#263e7b"/></linearGradient><linearGradient id="linear-gradient-2" x1="10.34" y1="41.23" x2="260.34" y2="121.23" xlink:href="#linear-gradient"/><linearGradient id="linear-gradient-3" x1="21.76" y1="5.54" x2="271.76" y2="85.54" xlink:href="#linear-gradient"/><linearGradient id="linear-gradient-4" x1="30.48" y1="18.03" x2="266.4" y2="93.53" xlink:href="#linear-gradient"/><linearGradient id="linear-gradient-5" x1="277.09" y1="57.52" x2="469.09" y2="32.52" gradientTransform="matrix(1, 0, 0, -1, 0, 142.2)" gradientUnits="userSpaceOnUse"><stop offset="0" stop-color="#24244f"/><stop offset="0.65" stop-color="#2a2b7e"/></linearGradient><linearGradient id="linear-gradient-6" x1="287.19" y1="135.03" x2="479.19" y2="110.03" xlink:href="#linear-gradient-5"/><linearGradient id="linear-gradient-7" x1="278.25" y1="66.4" x2="470.25" y2="41.4" xlink:href="#linear-gradient-5"/><linearGradient id="linear-gradient-8" x1="279.41" y1="75.31" x2="471.41" y2="50.31" xlink:href="#linear-gradient-5"/></defs><title>manAsset 3</title><g id="Layer_2" data-name="Layer 2"><g id="Camada_1" data-name="Camada 1"><path class="cls-1" d="M179.6,109.1c5.1,0,9.1-2,11.8-6.1s4.1-9.7,4.1-17.1-1.4-13-4.2-17a14.8,14.8,0,0,0-23.8,0c-2.8,4-4.2,9.6-4.2,17s1.4,13.2,4.3,17.2A13.89,13.89,0,0,0,179.6,109.1Z"/><path class="cls-2" d="M78.2,19.3H17.1c-5.3,0-9.4,1.5-12.5,4.6S0,31.1,0,36.4v79.9A22.87,22.87,0,0,0,1.1,124a9.3,9.3,0,0,0,3.3,4.6,13.21,13.21,0,0,0,5.4,2.3,40.26,40.26,0,0,0,7.4.6,60.73,60.73,0,0,0,8.5-.6,47.9,47.9,0,0,0,6.3-1.1V91.1H64.3a11.19,11.19,0,0,0,8.2-3c2-2,3-5.4,3-10a23.24,23.24,0,0,0-1-7A17.46,17.46,0,0,0,72,65.8H31.8V45H70.3a11.19,11.19,0,0,0,8.2-3q3-3,3-10.2a24.37,24.37,0,0,0-1-7.1A17.14,17.14,0,0,0,78.2,19.3Z"/><path class="cls-3" d="M116.6,11.9a13.1,13.1,0,0,0-5.4-2.2,39.89,39.89,0,0,0-7.3-.6,52.87,52.87,0,0,0-8,.6c-2.6.4-4.6.8-6,1V117.2a19.06,19.06,0,0,0,1.2,7.4,10.37,10.37,0,0,0,3.4,4.5,13.1,13.1,0,0,0,5.4,2.2,39.89,39.89,0,0,0,7.3.6,52.87,52.87,0,0,0,8-.6c2.6-.4,4.6-.8,6-1V23.9a19.06,19.06,0,0,0-1.2-7.4A10.12,10.12,0,0,0,116.6,11.9Z"/><path class="cls-4" d="M214.2,51.5A43.57,43.57,0,0,0,199.1,42a53.42,53.42,0,0,0-19.6-3.4,55.2,55.2,0,0,0-19.6,3.3,42.67,42.67,0,0,0-15.1,9.5,42,42,0,0,0-9.8,15A53.42,53.42,0,0,0,131.5,86a53.74,53.74,0,0,0,3.5,19.8,42,42,0,0,0,9.8,15,43.57,43.57,0,0,0,15.1,9.5,55.59,55.59,0,0,0,19.6,3.3,57.58,57.58,0,0,0,19.6-3.1A40.34,40.34,0,0,0,224,106.3,55.71,55.71,0,0,0,227.5,86,53.26,53.26,0,0,0,224,66.5,42,42,0,0,0,214.2,51.5ZM191.4,103a13.62,13.62,0,0,1-11.8,6.1,13.89,13.89,0,0,1-12-6c-2.9-4-4.3-9.7-4.3-17.2,0-7.3,1.4-13,4.2-17a14.8,14.8,0,0,1,23.8,0c2.8,4,4.2,9.6,4.2,17S194.2,99,191.4,103Z"/><path class="cls-5" d="M268.7,72.4V23.9a19.06,19.06,0,0,0-1.2-7.4,10.37,10.37,0,0,0-3.4-4.5,13.1,13.1,0,0,0-5.4-2.2,39.89,39.89,0,0,0-7.3-.6,52.87,52.87,0,0,0-8,.6,52,52,0,0,0-6,1.2v93.9"/><path class="cls-6" d="M315.6,75.8c2.7-2.3,5-4.4,7.1-6.2a58.65,58.65,0,0,0,5-5,18.17,18.17,0,0,0,2.8-4.7,13.48,13.48,0,0,0,.9-5c0-4.3-1.9-7.8-5.8-10.7s-9-4.2-15.3-4.2L294,56.7l-46.5,48.2v12.4a19.06,19.06,0,0,0,1.2,7.4,10.37,10.37,0,0,0,3.4,4.5,13.1,13.1,0,0,0,5.4,2.2,39.89,39.89,0,0,0,7.3.6,52.87,52.87,0,0,0,8-.6c2.6-.4,4.6-.8,6-1V97L297,119.8a41.46,41.46,0,0,0,9.9,9.6,19.41,19.41,0,0,0,10.5,2.8c5.3,0,9.3-1.5,12-4.6s4.4-7.5,5-13.2L305,85Z"/><path class="cls-7" d="M359.6,0c-5.1,0-9.3,1.6-12.4,4.8a16.3,16.3,0,0,0-4.7,11.8,16.3,16.3,0,0,0,4.7,11.8c3.1,3.2,7.3,4.8,12.4,4.8s9.3-1.6,12.4-4.8a16.3,16.3,0,0,0,4.7-11.8A16.3,16.3,0,0,0,372,4.8C368.9,1.6,364.8,0,359.6,0Z"/><path class="cls-8" d="M370.7,43.7a13.1,13.1,0,0,0-5.4-2.2,39.89,39.89,0,0,0-7.3-.6,52.87,52.87,0,0,0-8,.6c-2.6.4-4.6.8-6,1v74.7a19.06,19.06,0,0,0,1.2,7.4,10.37,10.37,0,0,0,3.4,4.5,13.1,13.1,0,0,0,5.4,2.2,39.89,39.89,0,0,0,7.3.6,52.87,52.87,0,0,0,8-.6c2.6-.4,4.6-.8,6-1V55.6a19.06,19.06,0,0,0-1.2-7.4A11.2,11.2,0,0,0,370.7,43.7Z"/><path class="cls-9" d="M466,47.7c-7.5-6.1-18.1-9.1-32-9.1a72.61,72.61,0,0,0-21,2.8,50.76,50.76,0,0,0-15.7,7.2,21,21,0,0,0-5.8,5.7,14.33,14.33,0,0,0-2.1,8.1v55.1a19.06,19.06,0,0,0,1.2,7.4,10.37,10.37,0,0,0,3.4,4.5,13.1,13.1,0,0,0,5.4,2.2,39.89,39.89,0,0,0,7.3.6,55.54,55.54,0,0,0,8.2-.6,43.22,43.22,0,0,0,5.8-1.1V66.7a20.83,20.83,0,0,1,6.2-2.8,29.79,29.79,0,0,1,7.3-.9q5.55,0,8.7,2.7c2.1,1.8,3.2,4.6,3.2,8.4v43.3a19.06,19.06,0,0,0,1.2,7.4,10.37,10.37,0,0,0,3.4,4.5,13.1,13.1,0,0,0,5.4,2.2,39.89,39.89,0,0,0,7.3.6,55.54,55.54,0,0,0,8.2-.6,43.22,43.22,0,0,0,5.8-1.1V72.9Q477.1,56.7,466,47.7Z"/></g></g></svg>